<svg width="1000" height="905" viewBox="0 0 1000 905" fill="none" xmlns="http://www.w3.org/2000/svg"><style>
            .sans {
                font-family: -apple-system, BlinkMacSystemFont, "Segoe UI", Helvetica, Arial, sans-serif, "Apple Color Emoji", "Segoe UI Emoji";
            }
            .mono {
                font-family: ui-monospace, SFMono-Regular, "SF Mono", Menlo, Consolas, "Liberation Mono", monospace;
                font-size: 12px;
                letter-spacing: -0.5px;
            }
            .bold {
                font-weight: 500;
            }
            .medium {
                font-size: 16px;
            }
            .small {
                font-size: 14px;
            }
            .smaller {
                font-size: 12px;
            }
            .pre {
                white-space: pre;
            }
            .glow {
                paint-order: stroke;
            }
        </style><g transform="translate(0, 0)"><g transform="translate(0, 0)"><defs><clipPath id="clip-card-10"><rect x="0" y="0" width="1000" height="105" rx="4.5"/></clipPath></defs><rect x="0.5" y="0.5" width="999" height="104" rx="4.5" stroke="rgba(0,0,0,0.15)"/><rect x="0.5" y="0.5" width="999" height="104" rx="4.5" fill="rgba(255,255,255,0.0)" stroke="rgba(255,255,255,0.3)"/><g clip-path="url(#clip-card-10)"><g transform="translate(0, 9223372036854775807)"><svg width="20" height="16" fill="none" xmlns="http://www.w3.org/2000/svg">
		<path d="M0 .842C0 .377.373 0 .833 0h18.334c.46 0 .833.377.833.842v.421a.838.838 0 0 1-.833.842H.833A.838.838 0 0 1 0 1.263v-.42ZM0 14.737c0-.465.373-.842.833-.842h18.334c.46 0 .833.377.833.842v.42a.838.838 0 0 1-.833.843H.833A.838.838 0 0 1 0 15.158v-.421ZM0 4.632c0-.465.373-.843.833-.843H5c.46 0 .833.377.833.843v.42A.838.838 0 0 1 5 5.896H.833A.838.838 0 0 1 0 5.053v-.421ZM0 8.421c0-.465.373-.842.833-.842H5c.46 0 .833.377.833.842v2.947A.838.838 0 0 1 5 12.21H.833A.838.838 0 0 1 0 11.368V8.421ZM7.083 4.632c0-.465.373-.843.834-.843h4.166c.46 0 .834.377.834.843v.42a.838.838 0 0 1-.834.843H7.917a.838.838 0 0 1-.834-.842v-.421ZM7.083 8.421c0-.465.373-.842.834-.842h4.166c.46 0 .834.377.834.842v2.947a.838.838 0 0 1-.834.842H7.917a.838.838 0 0 1-.834-.842V8.421ZM14.167 4.632c0-.465.373-.843.833-.843h4.167c.46 0 .833.377.833.843v.42a.838.838 0 0 1-.833.843H15a.838.838 0 0 1-.833-.842v-.421ZM14.167 8.421c0-.465.373-.842.833-.842h4.167c.46 0 .833.377.833.842v2.947a.838.838 0 0 1-.833.842H15a.838.838 0 0 1-.833-.842V8.421Z" fill="rgba(236, 72, 153, 1)"/>
	</svg></g><text x="28" y="-9223372036854775789" class="sans small bold" fill="#E5E7EB">30-Day Activity</text><rect x="970.0" y="9223372036854775808.0" width="8" height="8" rx="1.5" opacity="0.2" fill="#1D4ED8" /><g transform="translate(0, 20)"><g transform="translate(0, 20)"><rect x="0.0" y="42.0" width="1.0" height="1.0" rx="2" fill="#123086" /><rect x="2.0" y="42.0" width="1.0" height="1.0" rx="2" fill="#123086" /><rect x="4.0" y="42.0" width="1.0" height="1.0" rx="2" fill="#091a4a" /><rect x="6.0" y="42.0" width="1.0" height="1.0" rx="2" fill="#0e266b" /><rect x="8.0" y="42.0" width="1.0" height="1.0" rx="2" fill="#0b1f57" /><rect x="10.0" y="42.0" width="1.0" height="1.0" rx="2" fill="#091a4a" /><rect x="12.0" y="42.0" width="1.0" height="1.0" rx="2" fill="#123086" /><rect x="14.0" y="42.0" width="1.0" height="1.0" rx="2" fill="#0e266b" /><rect x="16.0" y="42.0" width="1.0" height="1.0" rx="2" fill="#091843" /><rect x="18.0" y="42.0" width="1.0" height="1.0" rx="2" fill="#123086" /><rect x="20.0" y="42.0" width="1.0" height="1.0" rx="2" fill="#5078e7" /><rect x="22.0" y="42.0" width="1.0" height="1.0" rx="2" fill="#091843" /><rect x="24.0" y="42.0" width="1.0" height="1.0" rx="2" fill="#0c215e" /><rect x="26.0" y="42.0" width="1.0" height="1.0" rx="2" fill="#102d7c" /><rect x="28.0" y="42.0" width="1.0" height="1.0" rx="2" fill="#091843" /><rect x="30.0" y="42.0" width="1.0" height="1.0" rx="2" fill="#0e266b" /><rect x="32.0" y="42.0" width="1.0" height="1.0" rx="2" fill="#4871e6" /><rect x="34.0" y="42.0" width="1.0" height="1.0" rx="2" fill="#102d7c" /><rect x="36.0" y="42.0" width="1.0" height="1.0" rx="2" fill="#091a4a" /><rect x="38.0" y="42.0" width="1.0" height="1.0" rx="2" fill="#0c215e" /><rect x="40.0" y="42.0" width="1.0" height="1.0" rx="2" fill="#0d2464" /><rect x="42.0" y="42.0" width="1.0" height="1.0" rx="2" fill="#0c215e" /><rect x="44.0" y="42.0" width="1.0" height="1.0" rx="2" fill="#4c75e7" /><rect x="46.0" y="42.0" width="1.0" height="1.0" rx="2" fill="#0a1d50" /><rect x="48.0" y="42.0" width="1.0" height="1.0" rx="2" fill="#14379a" /><rect x="50.0" y="42.0" width="1.0" height="1.0" rx="2" fill="#0c215e" /><rect x="52.0" y="42.0" width="1.0" height="1.0" rx="2" fill="#091843" /><rect x="54.0" y="42.0" width="1.0" height="1.0" rx="2" fill="#123086" /><rect x="56.0" y="42.0" width="1.0" height="1.0" rx="2" fill="#091843" /><rect x="58.0" y="42.0" width="1.0" height="1.0" rx="2" fill="#0d2464" /></g></g></g></g></g><g transform="translate(0, 113)"><g transform="translate(0, 0)"><defs><clipPath id="clip-card-11"><rect x="0" y="0" width="328" height="416" rx="4.5"/></clipPath></defs><rect x="0.5" y="0.5" width="327" height="415" rx="4.5" stroke="rgba(0,0,0,0.15)"/><rect x="0.5" y="0.5" width="327" height="415" rx="4.5" fill="rgba(255,255,255,0.0)" stroke="rgba(255,255,255,0.3)"/><g clip-path="url(#clip-card-11)"><text x="0" y="-9223372036854775789" class="sans small bold" fill="#E5E7EB">Languages</text><g transform="translate(0, 0)"><rect x="0" y="0.0" width="13.7" height="20.0" rx="2" fill="#00ADD8" opacity="0.8" /><text x="-50" y="14.0" class="mono smaller bold" fill="white">Go (45.5%)</text><rect x="0" y="25.0" width="8.2" height="20.0" rx="2" fill="#3178c6" opacity="0.8" /><text x="-50" y="39.0" class="mono smaller bold" fill="white">TypeScript (27.3%)</text><rect x="0" y="50.0" width="5.5" height="20.0" rx="2" fill="#3572A5" opacity="0.8" /><text x="-50" y="64.0" class="mono smaller bold" fill="white">Python (18.2%)</text><rect x="0" y="75.0" width="2.2" height="20.0" rx="2" fill="#dea584" opacity="0.8" /><text x="-50" y="89.0" class="mono smaller bold" fill="white">Rust (7.3%)</text><rect x="0" y="100.0" width="0.5" height="20.0" rx="2" fill="#89e051" opacity="0.8" /><text x="-50" y="114.0" class="mono smaller bold" fill="white">Shell (1.8%)</text></g></g></g></g><g transform="translate(336, 113)"><g transform="translate(0, 0)"><rect x="0.5" y="0.5" width="327" height="207" rx="4.5" stroke="rgba(0,0,0,0.15)"/><rect x="0.5" y="0.5" width="327" height="207" rx="4.5" stroke="rgba(255,255,255,0.3)"/><text x="10" y="24" class="sans small bold" fill="#1D4ED8">Total Commits</text><text x="10" y="56" text-anchor="start" class="mono smaller bold" fill="#E5E7EB">Last 30 days</text><text x="308" y="56" text-anchor="end" class="mono smaller bold" fill="#CF3E3E">past month</text><g transform="translate(213, 46)"><svg width="12" height="12" viewBox="0 0 12 12" fill="none" xmlns="http://www.w3.org/2000/svg"><path d="M2.02989 7.836L2.02994 7.83604L5.15494 10.961L5.15498 10.9611C5.24404 11.05 5.36477 11.1 5.49065 11.1C5.61652 11.1 5.73725 11.05 5.82631 10.9611L5.82636 10.961L8.95018 7.83722C8.99622 7.79398 9.03317 7.742 9.05888 7.6843C9.08484 7.62603 9.0988 7.56313 9.09993 7.49936C9.10105 7.43558 9.08932 7.37223 9.06543 7.31308C9.04154 7.25393 9.00598 7.20021 8.96088 7.1551C8.91577 7.11 8.86204 7.07444 8.8029 7.05055C8.74375 7.02666 8.6804 7.01492 8.61662 7.01605C8.55284 7.01717 8.48994 7.03113 8.43168 7.0571C8.37398 7.0828 8.322 7.11976 8.27876 7.16579L5.96565 9.47891L5.96565 2.50033C5.96565 2.37435 5.9156 2.25353 5.82652 2.16445C5.73744 2.07537 5.61662 2.02533 5.49065 2.02533C5.36467 2.02533 5.24385 2.07537 5.15477 2.16445C5.06569 2.25353 5.01565 2.37435 5.01565 2.50033L5.01565 9.47891L2.70136 7.16462L2.70131 7.16458C2.61225 7.07562 2.49152 7.02566 2.36565 7.02566C2.23977 7.02566 2.11904 7.07562 2.02998 7.16458L2.10065 7.23533L2.02989 7.16466C1.94094 7.25373 1.89098 7.37446 1.89098 7.50033C1.89098 7.62621 1.94094 7.74693 2.02989 7.836Z" fill="#CF3E3E" stroke="#CF3E3E" stroke-width="0.5"/></svg></g></g></g><g transform="translate(672, 113)"><g transform="translate(0, 0)"><rect x="0.5" y="0.5" width="327" height="207" rx="4.5" stroke="rgba(0,0,0,0.15)"/><rect x="0.5" y="0.5" width="327" height="207" rx="4.5" stroke="rgba(255,255,255,0.3)"/><text x="10" y="24" class="sans small bold" fill="#F59E0B">Stars</text><text x="10" y="56" text-anchor="start" class="mono smaller bold" fill="#E5E7EB">Received</text><text x="308" y="56" text-anchor="end" class="mono smaller bold" fill="#CF3E3E">past month</text><g transform="translate(213, 46)"><svg width="12" height="12" viewBox="0 0 12 12" fill="none" xmlns="http://www.w3.org/2000/svg"><path d="M2.02989 7.836L2.02994 7.83604L5.15494 10.961L5.15498 10.9611C5.24404 11.05 5.36477 11.1 5.49065 11.1C5.61652 11.1 5.73725 11.05 5.82631 10.9611L5.82636 10.961L8.95018 7.83722C8.99622 7.79398 9.03317 7.742 9.05888 7.6843C9.08484 7.62603 9.0988 7.56313 9.09993 7.49936C9.10105 7.43558 9.08932 7.37223 9.06543 7.31308C9.04154 7.25393 9.00598 7.20021 8.96088 7.1551C8.91577 7.11 8.86204 7.07444 8.8029 7.05055C8.74375 7.02666 8.6804 7.01492 8.61662 7.01605C8.55284 7.01717 8.48994 7.03113 8.43168 7.0571C8.37398 7.0828 8.322 7.11976 8.27876 7.16579L5.96565 9.47891L5.96565 2.50033C5.96565 2.37435 5.9156 2.25353 5.82652 2.16445C5.73744 2.07537 5.61662 2.02533 5.49065 2.02533C5.36467 2.02533 5.24385 2.07537 5.15477 2.16445C5.06569 2.25353 5.01565 2.37435 5.01565 2.50033L5.01565 9.47891L2.70136 7.16462L2.70131 7.16458C2.61225 7.07562 2.49152 7.02566 2.36565 7.02566C2.23977 7.02566 2.11904 7.07562 2.02998 7.16458L2.10065 7.23533L2.02989 7.16466C1.94094 7.25373 1.89098 7.37446 1.89098 7.50033C1.89098 7.62621 1.94094 7.74693 2.02989 7.836Z" fill="#CF3E3E" stroke="#CF3E3E" stroke-width="0.5"/></svg></g></g></g><g transform="translate(336, 329)"><g transform="translate(0, 0)"><defs><clipPath id="clip-card-12"><rect x="0" y="0" width="664" height="295" rx="4.5"/></clipPath></defs><rect x="0.5" y="0.5" width="663" height="294" rx="4.5" stroke="rgba(0,0,0,0.15)"/><rect x="0.5" y="0.5" width="663" height="294" rx="4.5" fill="rgba(255,255,255,0.0)" stroke="rgba(255,255,255,0.3)"/><g clip-path="url(#clip-card-12)"><text x="0" y="-9223372036854775789" class="sans small bold" fill="#E5E7EB">Activity Over Time</text><g transform="translate(0, 0)"><g transform="translate(0, 0)"><line x1="0" y1="0.0" x2="40" y2="0.0" stroke="rgba(255,255,255,0.1)" stroke-width="1"/><text x="35" y="3.0" text-anchor="end" class="mono smaller" fill="#E5E7EB" opacity="0.5">20</text><line x1="0" y1="59.0" x2="40" y2="59.0" stroke="rgba(255,255,255,0.1)" stroke-width="1"/><text x="35" y="62.0" text-anchor="end" class="mono smaller" fill="#E5E7EB" opacity="0.5">16</text><line x1="0" y1="118.0" x2="40" y2="118.0" stroke="rgba(255,255,255,0.1)" stroke-width="1"/><text x="35" y="121.0" text-anchor="end" class="mono smaller" fill="#E5E7EB" opacity="0.5">13</text><line x1="0" y1="177.0" x2="40" y2="177.0" stroke="rgba(255,255,255,0.1)" stroke-width="1"/><text x="35" y="180.0" text-anchor="end" class="mono smaller" fill="#E5E7EB" opacity="0.5">10</text><line x1="0" y1="236.0" x2="40" y2="236.0" stroke="rgba(255,255,255,0.1)" stroke-width="1"/><text x="35" y="239.0" text-anchor="end" class="mono smaller" fill="#E5E7EB" opacity="0.5">7</text><line x1="0" y1="295.0" x2="40" y2="295.0" stroke="rgba(255,255,255,0.1)" stroke-width="1"/><text x="35" y="298.0" text-anchor="end" class="mono smaller" fill="#E5E7EB" opacity="0.5">4</text><path d="M 0 295 L 0.0 239.7 L 0.0 276.6 L 0.0 258.1 L 0.0 55.3 L 0.0 184.4 L 0.0 276.6 L 0.0 73.8 L 0.0 165.9 L 0.0 276.6 L 0.0 36.9 L 0.0 18.4 L 0.0 165.9 L 0.0 258.1 L 0.0 147.5 L 0.0 92.2 L 0.0 18.4 L 0.0 147.5 L 0.0 55.3 L 0.0 18.4 L 0.0 36.9 L 0.0 55.3 L 0.0 129.1 L 0.0 110.6 L 0.0 110.6 L 0.0 73.8 L 0.0 18.4 L 0.0 129.1 L 0.0 221.2 L 0.0 276.6 L 0.0 36.9 L 0 295 Z" fill="#1D4ED8" opacity="0.2"/><path d="M 0.0 239.7 L 0.0 276.6 L 0.0 258.1 L 0.0 55.3 L 0.0 184.4 L 0.0 276.6 L 0.0 73.8 L 0.0 165.9 L 0.0 276.6 L 0.0 36.9 L 0.0 18.4 L 0.0 165.9 L 0.0 258.1 L 0.0 147.5 L 0.0 92.2 L 0.0 18.4 L 0.0 147.5 L 0.0 55.3 L 0.0 18.4 L 0.0 36.9 L 0.0 55.3 L 0.0 129.1 L 0.0 110.6 L 0.0 110.6 L 0.0 73.8 L 0.0 18.4 L 0.0 129.1 L 0.0 221.2 L 0.0 276.6 L 0.0 36.9 " fill="none" stroke="#1D4ED8" stroke-width="2" stroke-linecap="round" stroke-linejoin="round"/><circle cx="0.0" cy="239.7" r="3" fill="#1D4ED8" stroke="#020617" stroke-width="1"/><circle cx="0.0" cy="276.6" r="3" fill="#1D4ED8" stroke="#020617" stroke-width="1"/><circle cx="0.0" cy="258.1" r="3" fill="#1D4ED8" stroke="#020617" stroke-width="1"/><circle cx="0.0" cy="55.3" r="3" fill="#1D4ED8" stroke="#020617" stroke-width="1"/><circle cx="0.0" cy="184.4" r="3" fill="#1D4ED8" stroke="#020617" stroke-width="1"/><circle cx="0.0" cy="276.6" r="3" fill="#1D4ED8" stroke="#020617" stroke-width="1"/><circle cx="0.0" cy="73.8" r="3" fill="#1D4ED8" stroke="#020617" stroke-width="1"/><circle cx="0.0" cy="165.9" r="3" fill="#1D4ED8" stroke="#020617" stroke-width="1"/><circle cx="0.0" cy="276.6" r="3" fill="#1D4ED8" stroke="#020617" stroke-width="1"/><circle cx="0.0" cy="36.9" r="3" fill="#1D4ED8" stroke="#020617" stroke-width="1"/><circle cx="0.0" cy="18.4" r="3" fill="#1D4ED8" stroke="#020617" stroke-width="1"/><circle cx="0.0" cy="165.9" r="3" fill="#1D4ED8" stroke="#020617" stroke-width="1"/><circle cx="0.0" cy="258.1" r="3" fill="#1D4ED8" stroke="#020617" stroke-width="1"/><circle cx="0.0" cy="147.5" r="3" fill="#1D4ED8" stroke="#020617" stroke-width="1"/><circle cx="0.0" cy="92.2" r="3" fill="#1D4ED8" stroke="#020617" stroke-width="1"/><circle cx="0.0" cy="18.4" r="3" fill="#1D4ED8" stroke="#020617" stroke-width="1"/><circle cx="0.0" cy="147.5" r="3" fill="#1D4ED8" stroke="#020617" stroke-width="1"/><circle cx="0.0" cy="55.3" r="3" fill="#1D4ED8" stroke="#020617" stroke-width="1"/><circle cx="0.0" cy="18.4" r="3" fill="#1D4ED8" stroke="#020617" stroke-width="1"/><circle cx="0.0" cy="36.9" r="3" fill="#1D4ED8" stroke="#020617" stroke-width="1"/><circle cx="0.0" cy="55.3" r="3" fill="#1D4ED8" stroke="#020617" stroke-width="1"/><circle cx="0.0" cy="129.1" r="3" fill="#1D4ED8" stroke="#020617" stroke-width="1"/><circle cx="0.0" cy="110.6" r="3" fill="#1D4ED8" stroke="#020617" stroke-width="1"/><circle cx="0.0" cy="110.6" r="3" fill="#1D4ED8" stroke="#020617" stroke-width="1"/><circle cx="0.0" cy="73.8" r="3" fill="#1D4ED8" stroke="#020617" stroke-width="1"/><circle cx="0.0" cy="18.4" r="3" fill="#1D4ED8" stroke="#020617" stroke-width="1"/><circle cx="0.0" cy="129.1" r="3" fill="#1D4ED8" stroke="#020617" stroke-width="1"/><circle cx="0.0" cy="221.2" r="3" fill="#1D4ED8" stroke="#020617" stroke-width="1"/><circle cx="0.0" cy="276.6" r="3" fill="#1D4ED8" stroke="#020617" stroke-width="1"/><circle cx="0.0" cy="36.9" r="3" fill="#1D4ED8" stroke="#020617" stroke-width="1"/></g></g></g></g></g><g transform="translate(0, 632)"><g transform="translate(0, 0)"><defs><clipPath id="clip-card-13"><rect x="0" y="0" width="1000" height="257" rx="4.5"/></clipPath></defs><rect x="0.5" y="0.5" width="999" height="256" rx="4.5" stroke="rgba(0,0,0,0.15)"/><rect x="0.5" y="0.5" width="999" height="256" rx="4.5" fill="rgba(255,255,255,0.0)" stroke="rgba(255,255,255,0.3)"/><g clip-path="url(#clip-card-13)"><text x="0" y="-9223372036854775789" class="sans small bold" fill="#E5E7EB">Year Activity (GitHub Style)</text><g transform="translate(0, 0)"><g transform="translate(0, 0)"><g transform="translate(30.0, 125.0)"><rect x="0.0" y="0.0" width="1.0" height="1.0" rx="2" fill="#091843" /><rect x="0.0" y="1.0" width="1.0" height="1.0" rx="2" fill="#091843" /><rect x="0.0" y="2.0" width="1.0" height="1.0" rx="2" fill="#091843" /><rect x="0.0" y="3.0" width="1.0" height="1.0" rx="2" fill="#091843" /><rect x="0.0" y="4.0" width="1.0" height="1.0" rx="2" fill="#0d2362" /><rect x="0.0" y="5.0" width="1.0" height="1.0" rx="2" fill="#1a46c4" /><rect x="0.0" y="6.0" width="1.0" height="1.0" rx="2" fill="#091a49" /><rect x="2.0" y="0.0" width="1.0" height="1.0" rx="2" fill="#0b1f56" /><rect x="2.0" y="1.0" width="1.0" height="1.0" rx="2" fill="#0e286e" /><rect x="2.0" y="2.0" width="1.0" height="1.0" rx="2" fill="#0a1c4f" /><rect x="2.0" y="3.0" width="1.0" height="1.0" rx="2" fill="#0e2568" /><rect x="2.0" y="4.0" width="1.0" height="1.0" rx="2" fill="#102b77" /><rect x="2.0" y="5.0" width="1.0" height="1.0" rx="2" fill="#456fe6" /><rect x="2.0" y="6.0" width="1.0" height="1.0" rx="2" fill="#091a49" /><rect x="4.0" y="0.0" width="1.0" height="1.0" rx="2" fill="#0a1c4f" /><rect x="4.0" y="1.0" width="1.0" height="1.0" rx="2" fill="#0e286e" /><rect x="4.0" y="2.0" width="1.0" height="1.0" rx="2" fill="#4972e6" /><rect x="4.0" y="3.0" width="1.0" height="1.0" rx="2" fill="#1945bf" /><rect x="4.0" y="4.0" width="1.0" height="1.0" rx="2" fill="#102b77" /><rect x="4.0" y="5.0" width="1.0" height="1.0" rx="2" fill="#112e80" /><rect x="4.0" y="6.0" width="1.0" height="1.0" rx="2" fill="#0a1c4f" /><rect x="6.0" y="0.0" width="1.0" height="1.0" rx="2" fill="#091a49" /><rect x="6.0" y="1.0" width="1.0" height="1.0" rx="2" fill="#0c215c" /><rect x="6.0" y="2.0" width="1.0" height="1.0" rx="2" fill="#112e80" /><rect x="6.0" y="3.0" width="1.0" height="1.0" rx="2" fill="#0d2362" /><rect x="6.0" y="4.0" width="1.0" height="1.0" rx="2" fill="#0b1f56" /><rect x="6.0" y="5.0" width="1.0" height="1.0" rx="2" fill="#0c215c" /><rect x="6.0" y="6.0" width="1.0" height="1.0" rx="2" fill="#091a49" /><rect x="8.0" y="0.0" width="1.0" height="1.0" rx="2" fill="#091a49" /><rect x="8.0" y="1.0" width="1.0" height="1.0" rx="2" fill="#091843" /><rect x="8.0" y="2.0" width="1.0" height="1.0" rx="2" fill="#0e286e" /><rect x="8.0" y="3.0" width="1.0" height="1.0" rx="2" fill="#0d2362" /><rect x="8.0" y="4.0" width="1.0" height="1.0" rx="2" fill="#0a1c4f" /><rect x="8.0" y="5.0" width="1.0" height="1.0" rx="2" fill="#0b1f56" /><rect x="8.0" y="6.0" width="1.0" height="1.0" rx="2" fill="#091843" /><rect x="10.0" y="0.0" width="1.0" height="1.0" rx="2" fill="#091843" /><rect x="10.0" y="1.0" width="1.0" height="1.0" rx="2" fill="#0b1f56" /><rect x="10.0" y="2.0" width="1.0" height="1.0" rx="2" fill="#0a1c4f" /><rect x="10.0" y="3.0" width="1.0" height="1.0" rx="2" fill="#0e2568" /><rect x="10.0" y="4.0" width="1.0" height="1.0" rx="2" fill="#0c215c" /><rect x="10.0" y="5.0" width="1.0" height="1.0" rx="2" fill="#0c215c" /><rect x="10.0" y="6.0" width="1.0" height="1.0" rx="2" fill="#091843" /><rect x="12.0" y="0.0" width="1.0" height="1.0" rx="2" fill="#0b1f56" /><rect x="12.0" y="1.0" width="1.0" height="1.0" rx="2" fill="#123189" /><rect x="12.0" y="2.0" width="1.0" height="1.0" rx="2" fill="#0e2568" /><rect x="12.0" y="3.0" width="1.0" height="1.0" rx="2" fill="#091a49" /><rect x="12.0" y="4.0" width="1.0" height="1.0" rx="2" fill="#091843" /><rect x="12.0" y="5.0" width="1.0" height="1.0" rx="2" fill="#1943ba" /><rect x="12.0" y="6.0" width="1.0" height="1.0" rx="2" fill="#0b1f56" /><rect x="14.0" y="0.0" width="1.0" height="1.0" rx="2" fill="#0b1f56" /><rect x="14.0" y="1.0" width="1.0" height="1.0" rx="2" fill="#1943ba" /><rect x="14.0" y="2.0" width="1.0" height="1.0" rx="2" fill="#091a49" /><rect x="14.0" y="3.0" width="1.0" height="1.0" rx="2" fill="#112e80" /><rect x="14.0" y="4.0" width="1.0" height="1.0" rx="2" fill="#0d2362" /><rect x="14.0" y="5.0" width="1.0" height="1.0" rx="2" fill="#091a49" /><rect x="14.0" y="6.0" width="1.0" height="1.0" rx="2" fill="#091a49" /><rect x="16.0" y="0.0" width="1.0" height="1.0" rx="2" fill="#091a49" /><rect x="16.0" y="1.0" width="1.0" height="1.0" rx="2" fill="#0b1f56" /><rect x="16.0" y="2.0" width="1.0" height="1.0" rx="2" fill="#102b77" /><rect x="16.0" y="3.0" width="1.0" height="1.0" rx="2" fill="#0e2568" /><rect x="16.0" y="4.0" width="1.0" height="1.0" rx="2" fill="#091843" /><rect x="16.0" y="5.0" width="1.0" height="1.0" rx="2" fill="#0e286e" /><rect x="16.0" y="6.0" width="1.0" height="1.0" rx="2" fill="#091a49" /><rect x="18.0" y="0.0" width="1.0" height="1.0" rx="2" fill="#0b1f56" /><rect x="18.0" y="1.0" width="1.0" height="1.0" rx="2" fill="#0e2568" /><rect x="18.0" y="2.0" width="1.0" height="1.0" rx="2" fill="#0a1c4f" /><rect x="18.0" y="3.0" width="1.0" height="1.0" rx="2" fill="#0c215c" /><rect x="18.0" y="4.0" width="1.0" height="1.0" rx="2" fill="#0d2362" /><rect x="18.0" y="5.0" width="1.0" height="1.0" rx="2" fill="#0e286e" /><rect x="18.0" y="6.0" width="1.0" height="1.0" rx="2" fill="#091843" /><rect x="20.0" y="0.0" width="1.0" height="1.0" rx="2" fill="#091a49" /><rect x="20.0" y="1.0" width="1.0" height="1.0" rx="2" fill="#0e286e" /><rect x="20.0" y="2.0" width="1.0" height="1.0" rx="2" fill="#102b77" /><rect x="20.0" y="3.0" width="1.0" height="1.0" rx="2" fill="#0e2568" /><rect x="20.0" y="4.0" width="1.0" height="1.0" rx="2" fill="#1841b6" /><rect x="20.0" y="5.0" width="1.0" height="1.0" rx="2" fill="#091a49" /><rect x="20.0" y="6.0" width="1.0" height="1.0" rx="2" fill="#0a1c4f" /><rect x="22.0" y="0.0" width="1.0" height="1.0" rx="2" fill="#091a49" /><rect x="22.0" y="1.0" width="1.0" height="1.0" rx="2" fill="#0b1f56" /><rect x="22.0" y="2.0" width="1.0" height="1.0" rx="2" fill="#102b77" /><rect x="22.0" y="3.0" width="1.0" height="1.0" rx="2" fill="#0b1f56" /><rect x="22.0" y="4.0" width="1.0" height="1.0" rx="2" fill="#0e286e" /><rect x="22.0" y="5.0" width="1.0" height="1.0" rx="2" fill="#102b77" /><rect x="22.0" y="6.0" width="1.0" height="1.0" rx="2" fill="#0a1c4f" /><rect x="24.0" y="0.0" width="1.0" height="1.0" rx="2" fill="#0c215c" /><rect x="24.0" y="1.0" width="1.0" height="1.0" rx="2" fill="#0e286e" /><rect x="24.0" y="2.0" width="1.0" height="1.0" rx="2" fill="#0b1f56" /><rect x="24.0" y="3.0" width="1.0" height="1.0" rx="2" fill="#0e2568" /><rect x="24.0" y="4.0" width="1.0" height="1.0" rx="2" fill="#102b77" /><rect x="24.0" y="5.0" width="1.0" height="1.0" rx="2" fill="#5078e7" /><rect x="24.0" y="6.0" width="1.0" height="1.0" rx="2" fill="#0c215c" /><rect x="26.0" y="0.0" width="1.0" height="1.0" rx="2" fill="#091a49" /><rect x="26.0" y="1.0" width="1.0" height="1.0" rx="2" fill="#1b4acd" /><rect x="26.0" y="2.0" width="1.0" height="1.0" rx="2" fill="#0e2568" /><rect x="26.0" y="3.0" width="1.0" height="1.0" rx="2" fill="#0a1c4f" /><rect x="26.0" y="4.0" width="1.0" height="1.0" rx="2" fill="#0d2362" /><rect x="26.0" y="5.0" width="1.0" height="1.0" rx="2" fill="#102b77" /><rect x="26.0" y="6.0" width="1.0" height="1.0" rx="2" fill="#0b1f56" /><rect x="28.0" y="0.0" width="1.0" height="1.0" rx="2" fill="#0a1c4f" /><rect x="28.0" y="1.0" width="1.0" height="1.0" rx="2" fill="#0c215c" /><rect x="28.0" y="2.0" width="1.0" height="1.0" rx="2" fill="#0c215c" /><rect x="28.0" y="3.0" width="1.0" height="1.0" rx="2" fill="#091a49" /><rect x="28.0" y="4.0" width="1.0" height="1.0" rx="2" fill="#0e2568" /><rect x="28.0" y="5.0" width="1.0" height="1.0" rx="2" fill="#091a49" /><rect x="28.0" y="6.0" width="1.0" height="1.0" rx="2" fill="#0a1c4f" /><rect x="30.0" y="0.0" width="1.0" height="1.0" rx="2" fill="#091a49" /><rect x="30.0" y="1.0" width="1.0" height="1.0" rx="2" fill="#091843" /><rect x="30.0" y="2.0" width="1.0" height="1.0" rx="2" fill="#0e286e" /><rect x="30.0" y="3.0" width="1.0" height="1.0" rx="2" fill="#3d69e5" /><rect x="30.0" y="4.0" width="1.0" height="1.0" rx="2" fill="#1a48c8" /><rect x="30.0" y="5.0" width="1.0" height="1.0" rx="2" fill="#091a49" /><rect x="30.0" y="6.0" width="1.0" height="1.0" rx="2" fill="#091843" /><rect x="32.0" y="0.0" width="1.0" height="1.0" rx="2" fill="#091a49" /><rect x="32.0" y="1.0" width="1.0" height="1.0" rx="2" fill="#091a49" /><rect x="32.0" y="2.0" width="1.0" height="1.0" rx="2" fill="#091a49" /><rect x="32.0" y="3.0" width="1.0" height="1.0" rx="2" fill="#0e2568" /><rect x="32.0" y="4.0" width="1.0" height="1.0" rx="2" fill="#0a1c4f" /><rect x="32.0" y="5.0" width="1.0" height="1.0" rx="2" fill="#0b1f56" /><rect x="32.0" y="6.0" width="1.0" height="1.0" rx="2" fill="#091843" /><rect x="34.0" y="0.0" width="1.0" height="1.0" rx="2" fill="#091a49" /><rect x="34.0" y="1.0" width="1.0" height="1.0" rx="2" fill="#102b77" /><rect x="34.0" y="2.0" width="1.0" height="1.0" rx="2" fill="#112e80" /><rect x="34.0" y="3.0" width="1.0" height="1.0" rx="2" fill="#163ba5" /><rect x="34.0" y="4.0" width="1.0" height="1.0" rx="2" fill="#102b77" /><rect x="34.0" y="5.0" width="1.0" height="1.0" rx="2" fill="#1943ba" /><rect x="34.0" y="6.0" width="1.0" height="1.0" rx="2" fill="#091843" /><rect x="36.0" y="0.0" width="1.0" height="1.0" rx="2" fill="#0b1f56" /><rect x="36.0" y="1.0" width="1.0" height="1.0" rx="2" fill="#0e286e" /><rect x="36.0" y="2.0" width="1.0" height="1.0" rx="2" fill="#091a49" /><rect x="36.0" y="3.0" width="1.0" height="1.0" rx="2" fill="#091843" /><rect x="36.0" y="4.0" width="1.0" height="1.0" rx="2" fill="#112e80" /><rect x="36.0" y="5.0" width="1.0" height="1.0" rx="2" fill="#091a49" /><rect x="36.0" y="6.0" width="1.0" height="1.0" rx="2" fill="#091843" /><rect x="38.0" y="0.0" width="1.0" height="1.0" rx="2" fill="#0c215c" /><rect x="38.0" y="1.0" width="1.0" height="1.0" rx="2" fill="#1b4acd" /><rect x="38.0" y="2.0" width="1.0" height="1.0" rx="2" fill="#112e80" /><rect x="38.0" y="3.0" width="1.0" height="1.0" rx="2" fill="#091843" /><rect x="38.0" y="4.0" width="1.0" height="1.0" rx="2" fill="#102b77" /><rect x="38.0" y="5.0" width="1.0" height="1.0" rx="2" fill="#0b1f56" /><rect x="38.0" y="6.0" width="1.0" height="1.0" rx="2" fill="#091843" /><rect x="40.0" y="0.0" width="1.0" height="1.0" rx="2" fill="#091843" /><rect x="40.0" y="1.0" width="1.0" height="1.0" rx="2" fill="#112e80" /><rect x="40.0" y="2.0" width="1.0" height="1.0" rx="2" fill="#091a49" /><rect x="40.0" y="3.0" width="1.0" height="1.0" rx="2" fill="#1a46c4" /><rect x="40.0" y="4.0" width="1.0" height="1.0" rx="2" fill="#0d2362" /><rect x="40.0" y="5.0" width="1.0" height="1.0" rx="2" fill="#0a1c4f" /><rect x="40.0" y="6.0" width="1.0" height="1.0" rx="2" fill="#0a1c4f" /><rect x="42.0" y="0.0" width="1.0" height="1.0" rx="2" fill="#091a49" /><rect x="42.0" y="1.0" width="1.0" height="1.0" rx="2" fill="#416ce5" /><rect x="42.0" y="2.0" width="1.0" height="1.0" rx="2" fill="#0e2568" /><rect x="42.0" y="3.0" width="1.0" height="1.0" rx="2" fill="#0e2568" /><rect x="42.0" y="4.0" width="1.0" height="1.0" rx="2" fill="#091a49" /><rect x="42.0" y="5.0" width="1.0" height="1.0" rx="2" fill="#4972e6" /><rect x="42.0" y="6.0" width="1.0" height="1.0" rx="2" fill="#0b1f56" /><rect x="44.0" y="0.0" width="1.0" height="1.0" rx="2" fill="#091843" /><rect x="44.0" y="1.0" width="1.0" height="1.0" rx="2" fill="#091a49" /><rect x="44.0" y="2.0" width="1.0" height="1.0" rx="2" fill="#1b4acd" /><rect x="44.0" y="3.0" width="1.0" height="1.0" rx="2" fill="#1c4bd2" /><rect x="44.0" y="4.0" width="1.0" height="1.0" rx="2" fill="#0d2362" /><rect x="44.0" y="5.0" width="1.0" height="1.0" rx="2" fill="#0c215c" /><rect x="44.0" y="6.0" width="1.0" height="1.0" rx="2" fill="#0a1c4f" /><rect x="46.0" y="0.0" width="1.0" height="1.0" rx="2" fill="#0a1c4f" /><rect x="46.0" y="1.0" width="1.0" height="1.0" rx="2" fill="#0c215c" /><rect x="46.0" y="2.0" width="1.0" height="1.0" rx="2" fill="#091a49" /><rect x="46.0" y="3.0" width="1.0" height="1.0" rx="2" fill="#0a1c4f" /><rect x="46.0" y="4.0" width="1.0" height="1.0" rx="2" fill="#091843" /><rect x="46.0" y="5.0" width="1.0" height="1.0" rx="2" fill="#0c215c" /><rect x="46.0" y="6.0" width="1.0" height="1.0" rx="2" fill="#0a1c4f" /><rect x="48.0" y="0.0" width="1.0" height="1.0" rx="2" fill="#0c215c" /><rect x="48.0" y="1.0" width="1.0" height="1.0" rx="2" fill="#112e80" /><rect x="48.0" y="2.0" width="1.0" height="1.0" rx="2" fill="#0b1f56" /><rect x="48.0" y="3.0" width="1.0" height="1.0" rx="2" fill="#15389c" /><rect x="48.0" y="4.0" width="1.0" height="1.0" rx="2" fill="#0e2568" /><rect x="48.0" y="5.0" width="1.0" height="1.0" rx="2" fill="#0e286e" /><rect x="48.0" y="6.0" width="1.0" height="1.0" rx="2" fill="#091a49" /><rect x="50.0" y="0.0" width="1.0" height="1.0" rx="2" fill="#0b1f56" /><rect x="50.0" y="1.0" width="1.0" height="1.0" rx="2" fill="#0d2362" /><rect x="50.0" y="2.0" width="1.0" height="1.0" rx="2" fill="#0c215c" /><rect x="50.0" y="3.0" width="1.0" height="1.0" rx="2" fill="#0a1c4f" /><rect x="50.0" y="4.0" width="1.0" height="1.0" rx="2" fill="#091843" /><rect x="50.0" y="5.0" width="1.0" height="1.0" rx="2" fill="#0e2568" /><rect x="50.0" y="6.0" width="1.0" height="1.0" rx="2" fill="#0a1c4f" /><rect x="52.0" y="0.0" width="1.0" height="1.0" rx="2" fill="#0c215c" /><rect x="52.0" y="1.0" width="1.0" height="1.0" rx="2" fill="#091a49" /><rect x="52.0" y="2.0" width="1.0" height="1.0" rx="2" fill="#0c215c" /><rect x="52.0" y="3.0" width="1.0" height="1.0" rx="2" fill="#0c215c" /><rect x="52.0" y="4.0" width="1.0" height="1.0" rx="2" fill="#1945bf" /><rect x="52.0" y="5.0" width="1.0" height="1.0" rx="2" fill="#112e80" /><rect x="52.0" y="6.0" width="1.0" height="1.0" rx="2" fill="#0b1f56" /><rect x="54.0" y="0.0" width="1.0" height="1.0" rx="2" fill="#091a49" /><rect x="54.0" y="1.0" width="1.0" height="1.0" rx="2" fill="#112e80" /><rect x="54.0" y="2.0" width="1.0" height="1.0" rx="2" fill="#112e80" /><rect x="54.0" y="3.0" width="1.0" height="1.0" rx="2" fill="#0c215c" /><rect x="54.0" y="4.0" width="1.0" height="1.0" rx="2" fill="#0d2362" /><rect x="54.0" y="5.0" width="1.0" height="1.0" rx="2" fill="#112e80" /><rect x="54.0" y="6.0" width="1.0" height="1.0" rx="2" fill="#0c215c" /><rect x="56.0" y="0.0" width="1.0" height="1.0" rx="2" fill="#091843" /><rect x="56.0" y="1.0" width="1.0" height="1.0" rx="2" fill="#112e80" /><rect x="56.0" y="2.0" width="1.0" height="1.0" rx="2" fill="#0b1f56" /><rect x="56.0" y="3.0" width="1.0" height="1.0" rx="2" fill="#0a1c4f" /><rect x="56.0" y="4.0" width="1.0" height="1.0" rx="2" fill="#15389c" /><rect x="56.0" y="5.0" width="1.0" height="1.0" rx="2" fill="#0e2568" /><rect x="56.0" y="6.0" width="1.0" height="1.0" rx="2" fill="#0b1f56" /><rect x="58.0" y="0.0" width="1.0" height="1.0" rx="2" fill="#0b1f56" /><rect x="58.0" y="1.0" width="1.0" height="1.0" rx="2" fill="#0e286e" /><rect x="58.0" y="2.0" width="1.0" height="1.0" rx="2" fill="#1a48c8" /><rect x="58.0" y="3.0" width="1.0" height="1.0" rx="2" fill="#091843" /><rect x="58.0" y="4.0" width="1.0" height="1.0" rx="2" fill="#112e80" /><rect x="58.0" y="5.0" width="1.0" height="1.0" rx="2" fill="#0c215c" /><rect x="58.0" y="6.0" width="1.0" height="1.0" rx="2" fill="#0b1f56" /><rect x="60.0" y="0.0" width="1.0" height="1.0" rx="2" fill="#0c215c" /><rect x="60.0" y="1.0" width="1.0" height="1.0" rx="2" fill="#0e286e" /><rect x="60.0" y="2.0" width="1.0" height="1.0" rx="2" fill="#1b4acd" /><rect x="60.0" y="3.0" width="1.0" height="1.0" rx="2" fill="#112e80" /><rect x="60.0" y="4.0" width="1.0" height="1.0" rx="2" fill="#091a49" /><rect x="60.0" y="5.0" width="1.0" height="1.0" rx="2" fill="#1945bf" /><rect x="60.0" y="6.0" width="1.0" height="1.0" rx="2" fill="#0c215c" /><rect x="62.0" y="0.0" width="1.0" height="1.0" rx="2" fill="#0c215c" /><rect x="62.0" y="1.0" width="1.0" height="1.0" rx="2" fill="#0b1f56" /><rect x="62.0" y="2.0" width="1.0" height="1.0" rx="2" fill="#0a1c4f" /><rect x="62.0" y="3.0" width="1.0" height="1.0" rx="2" fill="#112e80" /><rect x="62.0" y="4.0" width="1.0" height="1.0" rx="2" fill="#456fe6" /><rect x="62.0" y="5.0" width="1.0" height="1.0" rx="2" fill="#3966e4" /><rect x="62.0" y="6.0" width="1.0" height="1.0" rx="2" fill="#091843" /><rect x="64.0" y="0.0" width="1.0" height="1.0" rx="2" fill="#0b1f56" /><rect x="64.0" y="1.0" width="1.0" height="1.0" rx="2" fill="#0d2362" /><rect x="64.0" y="2.0" width="1.0" height="1.0" rx="2" fill="#1a48c8" /><rect x="64.0" y="3.0" width="1.0" height="1.0" rx="2" fill="#0c215c" /><rect x="64.0" y="4.0" width="1.0" height="1.0" rx="2" fill="#0e2568" /><rect x="64.0" y="5.0" width="1.0" height="1.0" rx="2" fill="#102b77" /><rect x="64.0" y="6.0" width="1.0" height="1.0" rx="2" fill="#0c215c" /><rect x="66.0" y="0.0" width="1.0" height="1.0" rx="2" fill="#091a49" /><rect x="66.0" y="1.0" width="1.0" height="1.0" rx="2" fill="#15389c" /><rect x="66.0" y="2.0" width="1.0" height="1.0" rx="2" fill="#1943ba" /><rect x="66.0" y="3.0" width="1.0" height="1.0" rx="2" fill="#0c215c" /><rect x="66.0" y="4.0" width="1.0" height="1.0" rx="2" fill="#163ba5" /><rect x="66.0" y="5.0" width="1.0" height="1.0" rx="2" fill="#0c215c" /><rect x="66.0" y="6.0" width="1.0" height="1.0" rx="2" fill="#091a49" /><rect x="68.0" y="0.0" width="1.0" height="1.0" rx="2" fill="#0b1f56" /><rect x="68.0" y="1.0" width="1.0" height="1.0" rx="2" fill="#112e80" /><rect x="68.0" y="2.0" width="1.0" height="1.0" rx="2" fill="#0c215c" /><rect x="68.0" y="3.0" width="1.0" height="1.0" rx="2" fill="#0d2362" /><rect x="68.0" y="4.0" width="1.0" height="1.0" rx="2" fill="#0e286e" /><rect x="68.0" y="5.0" width="1.0" height="1.0" rx="2" fill="#0d2362" /><rect x="68.0" y="6.0" width="1.0" height="1.0" rx="2" fill="#0b1f56" /><rect x="70.0" y="0.0" width="1.0" height="1.0" rx="2" fill="#091a49" /><rect x="70.0" y="1.0" width="1.0" height="1.0" rx="2" fill="#0c215c" /><rect x="70.0" y="2.0" width="1.0" height="1.0" rx="2" fill="#0e286e" /><rect x="70.0" y="3.0" width="1.0" height="1.0" rx="2" fill="#1a46c4" /><rect x="70.0" y="4.0" width="1.0" height="1.0" rx="2" fill="#0a1c4f" /><rect x="70.0" y="5.0" width="1.0" height="1.0" rx="2" fill="#0e2568" /><rect x="70.0" y="6.0" width="1.0" height="1.0" rx="2" fill="#0a1c4f" /><rect x="72.0" y="0.0" width="1.0" height="1.0" rx="2" fill="#091a49" /><rect x="72.0" y="1.0" width="1.0" height="1.0" rx="2" fill="#5078e7" /><rect x="72.0" y="2.0" width="1.0" height="1.0" rx="2" fill="#102b77" /><rect x="72.0" y="3.0" width="1.0" height="1.0" rx="2" fill="#0c215c" /><rect x="72.0" y="4.0" width="1.0" height="1.0" rx="2" fill="#0e2568" /><rect x="72.0" y="5.0" width="1.0" height="1.0" rx="2" fill="#0e286e" /><rect x="72.0" y="6.0" width="1.0" height="1.0" rx="2" fill="#0c215c" /><rect x="74.0" y="0.0" width="1.0" height="1.0" rx="2" fill="#091843" /><rect x="74.0" y="1.0" width="1.0" height="1.0" rx="2" fill="#091a49" /><rect x="74.0" y="2.0" width="1.0" height="1.0" rx="2" fill="#0b1f56" /><rect x="74.0" y="3.0" width="1.0" height="1.0" rx="2" fill="#091843" /><rect x="74.0" y="4.0" width="1.0" height="1.0" rx="2" fill="#0a1c4f" /><rect x="74.0" y="5.0" width="1.0" height="1.0" rx="2" fill="#0e286e" /><rect x="74.0" y="6.0" width="1.0" height="1.0" rx="2" fill="#0c215c" /><rect x="76.0" y="0.0" width="1.0" height="1.0" rx="2" fill="#0a1c4f" /><rect x="76.0" y="1.0" width="1.0" height="1.0" rx="2" fill="#0d2362" /><rect x="76.0" y="2.0" width="1.0" height="1.0" rx="2" fill="#456fe6" /><rect x="76.0" y="3.0" width="1.0" height="1.0" rx="2" fill="#091a49" /><rect x="76.0" y="4.0" width="1.0" height="1.0" rx="2" fill="#1c4bd2" /><rect x="76.0" y="5.0" width="1.0" height="1.0" rx="2" fill="#0e286e" /><rect x="76.0" y="6.0" width="1.0" height="1.0" rx="2" fill="#0b1f56" /><rect x="78.0" y="0.0" width="1.0" height="1.0" rx="2" fill="#091843" /><rect x="78.0" y="1.0" width="1.0" height="1.0" rx="2" fill="#0a1c4f" /><rect x="78.0" y="2.0" width="1.0" height="1.0" rx="2" fill="#112e80" /><rect x="78.0" y="3.0" width="1.0" height="1.0" rx="2" fill="#0e286e" /><rect x="78.0" y="4.0" width="1.0" height="1.0" rx="2" fill="#0e286e" /><rect x="78.0" y="5.0" width="1.0" height="1.0" rx="2" fill="#091a49" /><rect x="78.0" y="6.0" width="1.0" height="1.0" rx="2" fill="#091a49" /><rect x="80.0" y="0.0" width="1.0" height="1.0" rx="2" fill="#091843" /><rect x="80.0" y="1.0" width="1.0" height="1.0" rx="2" fill="#091a49" /><rect x="80.0" y="2.0" width="1.0" height="1.0" rx="2" fill="#0e2568" /><rect x="80.0" y="3.0" width="1.0" height="1.0" rx="2" fill="#0c215c" /><rect x="80.0" y="4.0" width="1.0" height="1.0" rx="2" fill="#4972e6" /><rect x="80.0" y="5.0" width="1.0" height="1.0" rx="2" fill="#0e286e" /><rect x="80.0" y="6.0" width="1.0" height="1.0" rx="2" fill="#0a1c4f" /><rect x="82.0" y="0.0" width="1.0" height="1.0" rx="2" fill="#091843" /><rect x="82.0" y="1.0" width="1.0" height="1.0" rx="2" fill="#0d2362" /><rect x="82.0" y="2.0" width="1.0" height="1.0" rx="2" fill="#102b77" /><rect x="82.0" y="3.0" width="1.0" height="1.0" rx="2" fill="#0c215c" /><rect x="82.0" y="4.0" width="1.0" height="1.0" rx="2" fill="#1943ba" /><rect x="82.0" y="5.0" width="1.0" height="1.0" rx="2" fill="#0a1c4f" /><rect x="82.0" y="6.0" width="1.0" height="1.0" rx="2" fill="#0c215c" /><rect x="84.0" y="0.0" width="1.0" height="1.0" rx="2" fill="#0b1f56" /><rect x="84.0" y="1.0" width="1.0" height="1.0" rx="2" fill="#1945bf" /><rect x="84.0" y="2.0" width="1.0" height="1.0" rx="2" fill="#091843" /><rect x="84.0" y="3.0" width="1.0" height="1.0" rx="2" fill="#4972e6" /><rect x="84.0" y="4.0" width="1.0" height="1.0" rx="2" fill="#091a49" /><rect x="84.0" y="5.0" width="1.0" height="1.0" rx="2" fill="#0d2362" /><rect x="84.0" y="6.0" width="1.0" height="1.0" rx="2" fill="#0b1f56" /><rect x="86.0" y="0.0" width="1.0" height="1.0" rx="2" fill="#091843" /><rect x="86.0" y="1.0" width="1.0" height="1.0" rx="2" fill="#091843" /><rect x="86.0" y="2.0" width="1.0" height="1.0" rx="2" fill="#1c4bd2" /><rect x="86.0" y="3.0" width="1.0" height="1.0" rx="2" fill="#1a48c8" /><rect x="86.0" y="4.0" width="1.0" height="1.0" rx="2" fill="#0e2568" /><rect x="86.0" y="5.0" width="1.0" height="1.0" rx="2" fill="#112e80" /><rect x="86.0" y="6.0" width="1.0" height="1.0" rx="2" fill="#0c215c" /><rect x="88.0" y="0.0" width="1.0" height="1.0" rx="2" fill="#091843" /><rect x="88.0" y="1.0" width="1.0" height="1.0" rx="2" fill="#0e2568" /><rect x="88.0" y="2.0" width="1.0" height="1.0" rx="2" fill="#0e286e" /><rect x="88.0" y="3.0" width="1.0" height="1.0" rx="2" fill="#0e2568" /><rect x="88.0" y="4.0" width="1.0" height="1.0" rx="2" fill="#3966e4" /><rect x="88.0" y="5.0" width="1.0" height="1.0" rx="2" fill="#091843" /><rect x="88.0" y="6.0" width="1.0" height="1.0" rx="2" fill="#091a49" /><rect x="90.0" y="0.0" width="1.0" height="1.0" rx="2" fill="#091a49" /><rect x="90.0" y="1.0" width="1.0" height="1.0" rx="2" fill="#0b1f56" /><rect x="90.0" y="2.0" width="1.0" height="1.0" rx="2" fill="#102b77" /><rect x="90.0" y="3.0" width="1.0" height="1.0" rx="2" fill="#0e286e" /><rect x="90.0" y="4.0" width="1.0" height="1.0" rx="2" fill="#102b77" /><rect x="90.0" y="5.0" width="1.0" height="1.0" rx="2" fill="#0c215c" /><rect x="90.0" y="6.0" width="1.0" height="1.0" rx="2" fill="#0a1c4f" /><rect x="92.0" y="0.0" width="1.0" height="1.0" rx="2" fill="#0a1c4f" /><rect x="92.0" y="1.0" width="1.0" height="1.0" rx="2" fill="#112e80" /><rect x="92.0" y="2.0" width="1.0" height="1.0" rx="2" fill="#133593" /><rect x="92.0" y="3.0" width="1.0" height="1.0" rx="2" fill="#0a1c4f" /><rect x="92.0" y="4.0" width="1.0" height="1.0" rx="2" fill="#091843" /><rect x="92.0" y="5.0" width="1.0" height="1.0" rx="2" fill="#1a46c4" /><rect x="92.0" y="6.0" width="1.0" height="1.0" rx="2" fill="#0b1f56" /><rect x="94.0" y="0.0" width="1.0" height="1.0" rx="2" fill="#091a49" /><rect x="94.0" y="1.0" width="1.0" height="1.0" rx="2" fill="#0b1f56" /><rect x="94.0" y="2.0" width="1.0" height="1.0" rx="2" fill="#112e80" /><rect x="94.0" y="3.0" width="1.0" height="1.0" rx="2" fill="#1c4bd2" /><rect x="94.0" y="4.0" width="1.0" height="1.0" rx="2" fill="#0d2362" /><rect x="94.0" y="5.0" width="1.0" height="1.0" rx="2" fill="#3966e4" /><rect x="94.0" y="6.0" width="1.0" height="1.0" rx="2" fill="#0a1c4f" /><rect x="96.0" y="0.0" width="1.0" height="1.0" rx="2" fill="#0b1f56" /><rect x="96.0" y="1.0" width="1.0" height="1.0" rx="2" fill="#0e2568" /><rect x="96.0" y="2.0" width="1.0" height="1.0" rx="2" fill="#3d69e5" /><rect x="96.0" y="3.0" width="1.0" height="1.0" rx="2" fill="#0d2362" /><rect x="96.0" y="4.0" width="1.0" height="1.0" rx="2" fill="#091843" /><rect x="96.0" y="5.0" width="1.0" height="1.0" rx="2" fill="#112e80" /><rect x="96.0" y="6.0" width="1.0" height="1.0" rx="2" fill="#091843" /><rect x="98.0" y="0.0" width="1.0" height="1.0" rx="2" fill="#0c215c" /><rect x="98.0" y="1.0" width="1.0" height="1.0" rx="2" fill="#133593" /><rect x="98.0" y="2.0" width="1.0" height="1.0" rx="2" fill="#0a1c4f" /><rect x="98.0" y="3.0" width="1.0" height="1.0" rx="2" fill="#456fe6" /><rect x="98.0" y="4.0" width="1.0" height="1.0" rx="2" fill="#0c215c" /><rect x="98.0" y="5.0" width="1.0" height="1.0" rx="2" fill="#0d2362" /><rect x="98.0" y="6.0" width="1.0" height="1.0" rx="2" fill="#0c215c" /><rect x="100.0" y="0.0" width="1.0" height="1.0" rx="2" fill="#091a49" /><rect x="100.0" y="1.0" width="1.0" height="1.0" rx="2" fill="#102b77" /><rect x="100.0" y="2.0" width="1.0" height="1.0" rx="2" fill="#416ce5" /><rect x="100.0" y="3.0" width="1.0" height="1.0" rx="2" fill="#0e2568" /><rect x="100.0" y="4.0" width="1.0" height="1.0" rx="2" fill="#091843" /><rect x="100.0" y="5.0" width="1.0" height="1.0" rx="2" fill="#102b77" /><rect x="100.0" y="6.0" width="1.0" height="1.0" rx="2" fill="#0c215c" /><rect x="102.0" y="0.0" width="1.0" height="1.0" rx="2" fill="#091843" /><rect x="102.0" y="1.0" width="1.0" height="1.0" rx="2" fill="#4972e6" /><rect x="102.0" y="2.0" width="1.0" height="1.0" rx="2" fill="#112e80" /><rect x="102.0" y="3.0" width="1.0" height="1.0" rx="2" fill="#091843" /><rect x="102.0" y="4.0" width="1.0" height="1.0" rx="2" fill="#0e2568" /><rect x="102.0" y="5.0" width="1.0" height="1.0" rx="2" fill="#112e80" /><rect x="102.0" y="6.0" width="1.0" height="1.0" rx="2" fill="#091a49" /><rect x="104.0" y="0.0" width="1.0" height="1.0" rx="2" fill="#0b1f56" /><rect x="104.0" y="1.0" width="1.0" height="1.0" rx="2" fill="#0e2568" /><rect x="104.0" y="2.0" width="1.0" height="1.0" rx="2" fill="#091a49" /><rect x="104.0" y="3.0" width="1.0" height="1.0" rx="2" fill="#112e80" /><rect x="104.0" y="4.0" width="1.0" height="1.0" rx="2" fill="#112e80" /><text x="-5" y="4.5" text-anchor="end" class="mono smaller" fill="#E5E7EB">Mon</text><text x="-5" y="6.5" text-anchor="end" class="mono smaller" fill="#E5E7EB">Wed</text><text x="-5" y="8.5" text-anchor="end" class="mono smaller" fill="#E5E7EB">Fri</text></g></g></g></g></g></g></svg>