<svg width="1000" height="385" viewBox="0 0 1000 385" fill="none" xmlns="http://www.w3.org/2000/svg"><style>
            .sans {
                font-family: -apple-system, BlinkMacSystemFont, "Segoe UI", Helvetica, Arial, sans-serif, "Apple Color Emoji", "Segoe UI Emoji";
            }
            .mono {
                font-family: ui-monospace, SFMono-Regular, "SF Mono", Menlo, Consolas, "Liberation Mono", monospace;
                font-size: 12px;
                letter-spacing: -0.5px;
            }
            .bold {
                font-weight: 500;
            }
            .medium {
                font-size: 16px;
            }
            .small {
                font-size: 14px;
            }
            .smaller {
                font-size: 12px;
            }
            .pre {
                white-space: pre;
            }
            .glow {
                paint-order: stroke;
            }
        </style><g transform="translate(0, 0)"><g transform="translate(0, 0)"><defs><clipPath id="clip-card-8"><rect x="0" y="0" width="1000" height="105" rx="4.5"/></clipPath></defs><rect x="0.5" y="0.5" width="999" height="104" rx="4.5" stroke="rgba(0,0,0,0.15)"/><rect x="0.5" y="0.5" width="999" height="104" rx="4.5" fill="rgba(255,255,255,0.0)" stroke="rgba(255,255,255,0.3)"/><g clip-path="url(#clip-card-8)"><g transform="translate(10, 9223372036854775807)"><svg width="20" height="16" fill="none" xmlns="http://www.w3.org/2000/svg">
		<path d="M0 .842C0 .377.373 0 .833 0h18.334c.46 0 .833.377.833.842v.421a.838.838 0 0 1-.833.842H.833A.838.838 0 0 1 0 1.263v-.42ZM0 14.737c0-.465.373-.842.833-.842h18.334c.46 0 .833.377.833.842v.42a.838.838 0 0 1-.833.843H.833A.838.838 0 0 1 0 15.158v-.421ZM0 4.632c0-.465.373-.843.833-.843H5c.46 0 .833.377.833.843v.42A.838.838 0 0 1 5 5.896H.833A.838.838 0 0 1 0 5.053v-.421ZM0 8.421c0-.465.373-.842.833-.842H5c.46 0 .833.377.833.842v2.947A.838.838 0 0 1 5 12.21H.833A.838.838 0 0 1 0 11.368V8.421ZM7.083 4.632c0-.465.373-.843.834-.843h4.166c.46 0 .834.377.834.843v.42a.838.838 0 0 1-.834.843H7.917a.838.838 0 0 1-.834-.842v-.421ZM7.083 8.421c0-.465.373-.842.834-.842h4.166c.46 0 .834.377.834.842v2.947a.838.838 0 0 1-.834.842H7.917a.838.838 0 0 1-.834-.842V8.421ZM14.167 4.632c0-.465.373-.843.833-.843h4.167c.46 0 .833.377.833.843v.42a.838.838 0 0 1-.833.843H15a.838.838 0 0 1-.833-.842v-.421ZM14.167 8.421c0-.465.373-.842.833-.842h4.167c.46 0 .833.377.833.842v2.947a.838.838 0 0 1-.833.842H15a.838.838 0 0 1-.833-.842V8.421Z" fill="rgba(236, 72, 153, 1)"/>
	</svg></g><text x="38" y="-9223372036854775789" class="sans small bold" fill="#E5E7EB">30-Day Activity</text><rect x="980.0" y="9223372036854775808.0" width="8" height="8" rx="1.5" opacity="0.2" fill="#1D4ED8" /><g transform="translate(0, 20)"><g transform="translate(0, 20)"><rect x="0.0" y="42.0" width="1.0" height="1.0" rx="2" fill="#143798" /><rect x="2.0" y="42.0" width="1.0" height="1.0" rx="2" fill="#0a1c4f" /><rect x="4.0" y="42.0" width="1.0" height="1.0" rx="2" fill="#123086" /><rect x="6.0" y="42.0" width="1.0" height="1.0" rx="2" fill="#0f2a74" /><rect x="8.0" y="42.0" width="1.0" height="1.0" rx="2" fill="#0f2a74" /><rect x="10.0" y="42.0" width="1.0" height="1.0" rx="2" fill="#091843" /><rect x="12.0" y="42.0" width="1.0" height="1.0" rx="2" fill="#123086" /><rect x="14.0" y="42.0" width="1.0" height="1.0" rx="2" fill="#123086" /><rect x="16.0" y="42.0" width="1.0" height="1.0" rx="2" fill="#091843" /><rect x="18.0" y="42.0" width="1.0" height="1.0" rx="2" fill="#0a1c4f" /><rect x="20.0" y="42.0" width="1.0" height="1.0" rx="2" fill="#163daa" /><rect x="22.0" y="42.0" width="1.0" height="1.0" rx="2" fill="#0c215b" /><rect x="24.0" y="42.0" width="1.0" height="1.0" rx="2" fill="#0f2a74" /><rect x="26.0" y="42.0" width="1.0" height="1.0" rx="2" fill="#163daa" /><rect x="28.0" y="42.0" width="1.0" height="1.0" rx="2" fill="#1842b8" /><rect x="30.0" y="42.0" width="1.0" height="1.0" rx="2" fill="#1842b8" /><rect x="32.0" y="42.0" width="1.0" height="1.0" rx="2" fill="#143798" /><rect x="34.0" y="42.0" width="1.0" height="1.0" rx="2" fill="#0c215b" /><rect x="36.0" y="42.0" width="1.0" height="1.0" rx="2" fill="#0f2a74" /><rect x="38.0" y="42.0" width="1.0" height="1.0" rx="2" fill="#0d2567" /><rect x="40.0" y="42.0" width="1.0" height="1.0" rx="2" fill="#1945c1" /><rect x="42.0" y="42.0" width="1.0" height="1.0" rx="2" fill="#1945c1" /><rect x="44.0" y="42.0" width="1.0" height="1.0" rx="2" fill="#143798" /><rect x="46.0" y="42.0" width="1.0" height="1.0" rx="2" fill="#0a1c4f" /><rect x="48.0" y="42.0" width="1.0" height="1.0" rx="2" fill="#123086" /><rect x="50.0" y="42.0" width="1.0" height="1.0" rx="2" fill="#091843" /><rect x="52.0" y="42.0" width="1.0" height="1.0" rx="2" fill="#0c215b" /><rect x="54.0" y="42.0" width="1.0" height="1.0" rx="2" fill="#5078e7" /><rect x="56.0" y="42.0" width="1.0" height="1.0" rx="2" fill="#143798" /><rect x="58.0" y="42.0" width="1.0" height="1.0" rx="2" fill="#5078e7" /></g></g></g></g></g><g transform="translate(0, 113)"><g transform="translate(0, 0)"><rect x="0.5" y="0.5" width="495" height="83" rx="4.5" stroke="rgba(0,0,0,0.15)"/><rect x="0.5" y="0.5" width="495" height="83" rx="4.5" stroke="rgba(255,255,255,0.3)"/><text x="10" y="24" class="sans small bold" fill="#1D4ED8">Total Commits</text><text x="10" y="56" text-anchor="start" class="mono smaller bold" fill="#E5E7EB">Last 30 days</text><text x="476" y="56" text-anchor="end" class="mono smaller bold" fill="#CF3E3E">past month</text><g transform="translate(381, 46)"><svg width="12" height="12" viewBox="0 0 12 12" fill="none" xmlns="http://www.w3.org/2000/svg"><path d="M2.02989 7.836L2.02994 7.83604L5.15494 10.961L5.15498 10.9611C5.24404 11.05 5.36477 11.1 5.49065 11.1C5.61652 11.1 5.73725 11.05 5.82631 10.9611L5.82636 10.961L8.95018 7.83722C8.99622 7.79398 9.03317 7.742 9.05888 7.6843C9.08484 7.62603 9.0988 7.56313 9.09993 7.49936C9.10105 7.43558 9.08932 7.37223 9.06543 7.31308C9.04154 7.25393 9.00598 7.20021 8.96088 7.1551C8.91577 7.11 8.86204 7.07444 8.8029 7.05055C8.74375 7.02666 8.6804 7.01492 8.61662 7.01605C8.55284 7.01717 8.48994 7.03113 8.43168 7.0571C8.37398 7.0828 8.322 7.11976 8.27876 7.16579L5.96565 9.47891L5.96565 2.50033C5.96565 2.37435 5.9156 2.25353 5.82652 2.16445C5.73744 2.07537 5.61662 2.02533 5.49065 2.02533C5.36467 2.02533 5.24385 2.07537 5.15477 2.16445C5.06569 2.25353 5.01565 2.37435 5.01565 2.50033L5.01565 9.47891L2.70136 7.16462L2.70131 7.16458C2.61225 7.07562 2.49152 7.02566 2.36565 7.02566C2.23977 7.02566 2.11904 7.07562 2.02998 7.16458L2.10065 7.23533L2.02989 7.16466C1.94094 7.25373 1.89098 7.37446 1.89098 7.50033C1.89098 7.62621 1.94094 7.74693 2.02989 7.836Z" fill="#CF3E3E" stroke="#CF3E3E" stroke-width="0.5"/></svg></g><rect x="419" y="15" width="10" height="10" rx="10" fill="#61adf4"/><text x="434" y="23" class="sans smaller" fill="#61adf4">Opened</text><rect x="419" y="30" width="10" height="10" rx="10" fill="#1D4ED8"/><text x="434" y="38" class="sans smaller" fill="#1D4ED8">Closed</text><rect x="20.0" y="59.3" width="13.7" height="4.7" fill="#1D4ED8" /><rect x="20.0" y="52.1" width="13.7" height="7.1" fill="#61adf4" /><rect x="35.2" y="58.1" width="13.7" height="5.9" fill="#1D4ED8" /><rect x="35.2" y="49.2" width="13.7" height="8.9" fill="#61adf4" /><rect x="50.4" y="61.6" width="13.7" height="2.4" fill="#1D4ED8" /><rect x="50.4" y="58.0" width="13.7" height="3.6" fill="#61adf4" /><rect x="65.6" y="58.7" width="13.7" height="5.3" fill="#1D4ED8" /><rect x="65.6" y="50.8" width="13.7" height="7.9" fill="#61adf4" /><rect x="80.8" y="59.3" width="13.7" height="4.7" fill="#1D4ED8" /><rect x="80.8" y="52.1" width="13.7" height="7.1" fill="#61adf4" /><rect x="96.0" y="62.2" width="13.7" height="1.8" fill="#1D4ED8" /><rect x="96.0" y="59.5" width="13.7" height="2.7" fill="#61adf4" /><rect x="111.2" y="58.0" width="13.7" height="6.0" fill="#1D4ED8" /><rect x="111.2" y="49.0" width="13.7" height="9.0" fill="#61adf4" /><rect x="126.4" y="61.7" width="13.7" height="2.3" fill="#1D4ED8" /><rect x="126.4" y="58.2" width="13.7" height="3.5" fill="#61adf4" /><rect x="141.6" y="58.1" width="13.7" height="5.9" fill="#1D4ED8" /><rect x="141.6" y="49.2" width="13.7" height="8.9" fill="#61adf4" /><rect x="156.8" y="61.9" width="13.7" height="2.1" fill="#1D4ED8" /><rect x="156.8" y="58.9" width="13.7" height="3.1" fill="#61adf4" /><rect x="172.0" y="62.0" width="13.7" height="2.0" fill="#1D4ED8" /><rect x="172.0" y="59.1" width="13.7" height="3.0" fill="#61adf4" /><rect x="187.2" y="61.9" width="13.7" height="2.1" fill="#1D4ED8" /><rect x="187.2" y="58.6" width="13.7" height="3.2" fill="#61adf4" /><rect x="202.4" y="58.4" width="13.7" height="5.6" fill="#1D4ED8" /><rect x="202.4" y="50.1" width="13.7" height="8.3" fill="#61adf4" /><rect x="217.6" y="61.7" width="13.7" height="2.3" fill="#1D4ED8" /><rect x="217.6" y="58.2" width="13.7" height="3.5" fill="#61adf4" /><rect x="232.8" y="58.0" width="13.7" height="6.0" fill="#1D4ED8" /><rect x="232.8" y="49.0" width="13.7" height="9.0" fill="#61adf4" /><rect x="248.0" y="60.2" width="13.7" height="3.8" fill="#1D4ED8" /><rect x="248.0" y="54.6" width="13.7" height="5.6" fill="#61adf4" /><rect x="263.2" y="58.9" width="13.7" height="5.1" fill="#1D4ED8" /><rect x="263.2" y="51.2" width="13.7" height="7.7" fill="#61adf4" /><rect x="278.4" y="58.9" width="13.7" height="5.1" fill="#1D4ED8" /><rect x="278.4" y="51.2" width="13.7" height="7.7" fill="#61adf4" /><rect x="293.6" y="58.6" width="13.7" height="5.4" fill="#1D4ED8" /><rect x="293.6" y="50.6" width="13.7" height="8.1" fill="#61adf4" /><rect x="308.8" y="61.4" width="13.7" height="2.6" fill="#1D4ED8" /><rect x="308.8" y="57.5" width="13.7" height="3.9" fill="#61adf4" /><rect x="324.0" y="59.3" width="13.7" height="4.7" fill="#1D4ED8" /><rect x="324.0" y="52.4" width="13.7" height="7.0" fill="#61adf4" /><rect x="339.2" y="62.1" width="13.7" height="1.9" fill="#1D4ED8" /><rect x="339.2" y="59.3" width="13.7" height="2.8" fill="#61adf4" /><rect x="354.4" y="61.6" width="13.7" height="2.4" fill="#1D4ED8" /><rect x="354.4" y="58.0" width="13.7" height="3.6" fill="#61adf4" /><rect x="369.6" y="61.4" width="13.7" height="2.6" fill="#1D4ED8" /><rect x="369.6" y="57.5" width="13.7" height="3.9" fill="#61adf4" /><rect x="384.8" y="59.7" width="13.7" height="4.3" fill="#1D4ED8" /><rect x="384.8" y="53.3" width="13.7" height="6.4" fill="#61adf4" /><rect x="400.0" y="58.2" width="13.7" height="5.8" fill="#1D4ED8" /><rect x="400.0" y="49.4" width="13.7" height="8.7" fill="#61adf4" /><rect x="415.2" y="60.3" width="13.7" height="3.7" fill="#1D4ED8" /><rect x="415.2" y="54.8" width="13.7" height="5.5" fill="#61adf4" /><rect x="430.4" y="61.4" width="13.7" height="2.6" fill="#1D4ED8" /><rect x="430.4" y="57.5" width="13.7" height="3.9" fill="#61adf4" /><rect x="445.6" y="59.6" width="13.7" height="4.4" fill="#1D4ED8" /><rect x="445.6" y="53.0" width="13.7" height="6.6" fill="#61adf4" /><rect x="460.8" y="60.5" width="13.7" height="3.5" fill="#1D4ED8" /><rect x="460.8" y="55.3" width="13.7" height="5.2" fill="#61adf4" /></g></g><g transform="translate(504, 113)"><g transform="translate(0, 0)"><rect x="0.5" y="0.5" width="495" height="83" rx="4.5" stroke="rgba(0,0,0,0.15)"/><rect x="0.5" y="0.5" width="495" height="83" rx="4.5" stroke="rgba(255,255,255,0.3)"/><text x="10" y="24" class="sans small bold" fill="#7B58C9">Pull Requests</text><text x="10" y="56" text-anchor="start" class="mono smaller bold" fill="#E5E7EB">This month</text><text x="476" y="56" text-anchor="end" class="mono smaller bold" fill="#CF3E3E">past month</text><g transform="translate(381, 46)"><svg width="12" height="12" viewBox="0 0 12 12" fill="none" xmlns="http://www.w3.org/2000/svg"><path d="M2.02989 7.836L2.02994 7.83604L5.15494 10.961L5.15498 10.9611C5.24404 11.05 5.36477 11.1 5.49065 11.1C5.61652 11.1 5.73725 11.05 5.82631 10.9611L5.82636 10.961L8.95018 7.83722C8.99622 7.79398 9.03317 7.742 9.05888 7.6843C9.08484 7.62603 9.0988 7.56313 9.09993 7.49936C9.10105 7.43558 9.08932 7.37223 9.06543 7.31308C9.04154 7.25393 9.00598 7.20021 8.96088 7.1551C8.91577 7.11 8.86204 7.07444 8.8029 7.05055C8.74375 7.02666 8.6804 7.01492 8.61662 7.01605C8.55284 7.01717 8.48994 7.03113 8.43168 7.0571C8.37398 7.0828 8.322 7.11976 8.27876 7.16579L5.96565 9.47891L5.96565 2.50033C5.96565 2.37435 5.9156 2.25353 5.82652 2.16445C5.73744 2.07537 5.61662 2.02533 5.49065 2.02533C5.36467 2.02533 5.24385 2.07537 5.15477 2.16445C5.06569 2.25353 5.01565 2.37435 5.01565 2.50033L5.01565 9.47891L2.70136 7.16462L2.70131 7.16458C2.61225 7.07562 2.49152 7.02566 2.36565 7.02566C2.23977 7.02566 2.11904 7.07562 2.02998 7.16458L2.10065 7.23533L2.02989 7.16466C1.94094 7.25373 1.89098 7.37446 1.89098 7.50033C1.89098 7.62621 1.94094 7.74693 2.02989 7.836Z" fill="#CF3E3E" stroke="#CF3E3E" stroke-width="0.5"/></svg></g><rect x="419" y="15" width="10" height="10" rx="10" fill="#cf54fc"/><text x="434" y="23" class="sans smaller" fill="#cf54fc">Opened</text><rect x="419" y="30" width="10" height="10" rx="10" fill="#7B58C9"/><text x="434" y="38" class="sans smaller" fill="#7B58C9">Closed</text><rect x="20.0" y="58.6" width="13.7" height="5.4" fill="#7B58C9" /><rect x="20.0" y="50.6" width="13.7" height="8.1" fill="#cf54fc" /><rect x="35.2" y="62.4" width="13.7" height="1.6" fill="#7B58C9" /><rect x="35.2" y="60.1" width="13.7" height="2.4" fill="#cf54fc" /><rect x="50.4" y="58.0" width="13.7" height="6.0" fill="#7B58C9" /><rect x="50.4" y="49.0" width="13.7" height="9.0" fill="#cf54fc" /><rect x="65.6" y="58.6" width="13.7" height="5.4" fill="#7B58C9" /><rect x="65.6" y="50.6" width="13.7" height="8.1" fill="#cf54fc" /><rect x="80.8" y="60.8" width="13.7" height="3.2" fill="#7B58C9" /><rect x="80.8" y="56.1" width="13.7" height="4.7" fill="#cf54fc" /><rect x="96.0" y="61.2" width="13.7" height="2.8" fill="#7B58C9" /><rect x="96.0" y="56.9" width="13.7" height="4.3" fill="#cf54fc" /><rect x="111.2" y="58.3" width="13.7" height="5.7" fill="#7B58C9" /><rect x="111.2" y="49.8" width="13.7" height="8.5" fill="#cf54fc" /><rect x="126.4" y="60.2" width="13.7" height="3.8" fill="#7B58C9" /><rect x="126.4" y="54.5" width="13.7" height="5.7" fill="#cf54fc" /><rect x="141.6" y="58.6" width="13.7" height="5.4" fill="#7B58C9" /><rect x="141.6" y="50.6" width="13.7" height="8.1" fill="#cf54fc" /><rect x="156.8" y="59.3" width="13.7" height="4.7" fill="#7B58C9" /><rect x="156.8" y="52.2" width="13.7" height="7.1" fill="#cf54fc" /><rect x="172.0" y="59.9" width="13.7" height="4.1" fill="#7B58C9" /><rect x="172.0" y="53.7" width="13.7" height="6.2" fill="#cf54fc" /><rect x="187.2" y="58.9" width="13.7" height="5.1" fill="#7B58C9" /><rect x="187.2" y="51.4" width="13.7" height="7.6" fill="#cf54fc" /><rect x="202.4" y="59.3" width="13.7" height="4.7" fill="#7B58C9" /><rect x="202.4" y="52.2" width="13.7" height="7.1" fill="#cf54fc" /><rect x="217.6" y="59.3" width="13.7" height="4.7" fill="#7B58C9" /><rect x="217.6" y="52.2" width="13.7" height="7.1" fill="#cf54fc" /><rect x="232.8" y="61.5" width="13.7" height="2.5" fill="#7B58C9" /><rect x="232.8" y="57.7" width="13.7" height="3.8" fill="#cf54fc" /><rect x="248.0" y="59.6" width="13.7" height="4.4" fill="#7B58C9" /><rect x="248.0" y="52.9" width="13.7" height="6.6" fill="#cf54fc" /><rect x="263.2" y="58.9" width="13.7" height="5.1" fill="#7B58C9" /><rect x="263.2" y="51.4" width="13.7" height="7.6" fill="#cf54fc" /><rect x="278.4" y="61.5" width="13.7" height="2.5" fill="#7B58C9" /><rect x="278.4" y="57.7" width="13.7" height="3.8" fill="#cf54fc" /><rect x="293.6" y="60.5" width="13.7" height="3.5" fill="#7B58C9" /><rect x="293.6" y="55.3" width="13.7" height="5.2" fill="#cf54fc" /><rect x="308.8" y="60.5" width="13.7" height="3.5" fill="#7B58C9" /><rect x="308.8" y="55.3" width="13.7" height="5.2" fill="#cf54fc" /><rect x="324.0" y="58.6" width="13.7" height="5.4" fill="#7B58C9" /><rect x="324.0" y="50.6" width="13.7" height="8.1" fill="#cf54fc" /><rect x="339.2" y="62.1" width="13.7" height="1.9" fill="#7B58C9" /><rect x="339.2" y="59.3" width="13.7" height="2.8" fill="#cf54fc" /><rect x="354.4" y="58.9" width="13.7" height="5.1" fill="#7B58C9" /><rect x="354.4" y="51.4" width="13.7" height="7.6" fill="#cf54fc" /><rect x="369.6" y="59.6" width="13.7" height="4.4" fill="#7B58C9" /><rect x="369.6" y="52.9" width="13.7" height="6.6" fill="#cf54fc" /><rect x="384.8" y="61.2" width="13.7" height="2.8" fill="#7B58C9" /><rect x="384.8" y="56.9" width="13.7" height="4.3" fill="#cf54fc" /><rect x="400.0" y="58.6" width="13.7" height="5.4" fill="#7B58C9" /><rect x="400.0" y="50.6" width="13.7" height="8.1" fill="#cf54fc" /><rect x="415.2" y="60.2" width="13.7" height="3.8" fill="#7B58C9" /><rect x="415.2" y="54.5" width="13.7" height="5.7" fill="#cf54fc" /><rect x="430.4" y="60.2" width="13.7" height="3.8" fill="#7B58C9" /><rect x="430.4" y="54.5" width="13.7" height="5.7" fill="#cf54fc" /><rect x="445.6" y="61.5" width="13.7" height="2.5" fill="#7B58C9" /><rect x="445.6" y="57.7" width="13.7" height="3.8" fill="#cf54fc" /><rect x="460.8" y="60.8" width="13.7" height="3.2" fill="#7B58C9" /><rect x="460.8" y="56.1" width="13.7" height="4.7" fill="#cf54fc" /></g></g><g transform="translate(0, 205)"><g transform="translate(0, 0)"><defs><clipPath id="clip-card-9"><rect x="0" y="0" width="1000" height="180" rx="4.5"/></clipPath></defs><rect x="0.5" y="0.5" width="999" height="179" rx="4.5" stroke="rgba(0,0,0,0.15)"/><rect x="0.5" y="0.5" width="999" height="179" rx="4.5" fill="rgba(255,255,255,0.0)" stroke="rgba(255,255,255,0.3)"/><g clip-path="url(#clip-card-9)"><text x="10" y="-9223372036854775789" class="sans small bold" fill="#E5E7EB">Year Activity (GitHub Style)</text><g transform="translate(0, 0)"><g transform="translate(0, 0)"><g transform="translate(30.0, 86.5)"><rect x="0.0" y="0.0" width="1.0" height="1.0" rx="2" fill="#091843" /><rect x="0.0" y="1.0" width="1.0" height="1.0" rx="2" fill="#091843" /><rect x="0.0" y="2.0" width="1.0" height="1.0" rx="2" fill="#091843" /><rect x="0.0" y="3.0" width="1.0" height="1.0" rx="2" fill="#091843" /><rect x="0.0" y="4.0" width="1.0" height="1.0" rx="2" fill="#0d2362" /><rect x="0.0" y="5.0" width="1.0" height="1.0" rx="2" fill="#112e80" /><rect x="0.0" y="6.0" width="1.0" height="1.0" rx="2" fill="#0b1f56" /><rect x="2.0" y="0.0" width="1.0" height="1.0" rx="2" fill="#091a49" /><rect x="2.0" y="1.0" width="1.0" height="1.0" rx="2" fill="#0a1c4f" /><rect x="2.0" y="2.0" width="1.0" height="1.0" rx="2" fill="#0e2568" /><rect x="2.0" y="3.0" width="1.0" height="1.0" rx="2" fill="#0c215c" /><rect x="2.0" y="4.0" width="1.0" height="1.0" rx="2" fill="#091a49" /><rect x="2.0" y="5.0" width="1.0" height="1.0" rx="2" fill="#0b1f56" /><rect x="2.0" y="6.0" width="1.0" height="1.0" rx="2" fill="#0a1c4f" /><rect x="4.0" y="0.0" width="1.0" height="1.0" rx="2" fill="#0a1c4f" /><rect x="4.0" y="1.0" width="1.0" height="1.0" rx="2" fill="#0a1c4f" /><rect x="4.0" y="2.0" width="1.0" height="1.0" rx="2" fill="#0b1f56" /><rect x="4.0" y="3.0" width="1.0" height="1.0" rx="2" fill="#102b77" /><rect x="4.0" y="4.0" width="1.0" height="1.0" rx="2" fill="#112e80" /><rect x="4.0" y="5.0" width="1.0" height="1.0" rx="2" fill="#091843" /><rect x="4.0" y="6.0" width="1.0" height="1.0" rx="2" fill="#0a1c4f" /><rect x="6.0" y="0.0" width="1.0" height="1.0" rx="2" fill="#0c215c" /><rect x="6.0" y="1.0" width="1.0" height="1.0" rx="2" fill="#091a49" /><rect x="6.0" y="2.0" width="1.0" height="1.0" rx="2" fill="#1a48c8" /><rect x="6.0" y="3.0" width="1.0" height="1.0" rx="2" fill="#0e2568" /><rect x="6.0" y="4.0" width="1.0" height="1.0" rx="2" fill="#0c215c" /><rect x="6.0" y="5.0" width="1.0" height="1.0" rx="2" fill="#0b1f56" /><rect x="6.0" y="6.0" width="1.0" height="1.0" rx="2" fill="#091a49" /><rect x="8.0" y="0.0" width="1.0" height="1.0" rx="2" fill="#0b1f56" /><rect x="8.0" y="1.0" width="1.0" height="1.0" rx="2" fill="#1c4bd2" /><rect x="8.0" y="2.0" width="1.0" height="1.0" rx="2" fill="#091843" /><rect x="8.0" y="3.0" width="1.0" height="1.0" rx="2" fill="#173faf" /><rect x="8.0" y="4.0" width="1.0" height="1.0" rx="2" fill="#112e80" /><rect x="8.0" y="5.0" width="1.0" height="1.0" rx="2" fill="#091843" /><rect x="8.0" y="6.0" width="1.0" height="1.0" rx="2" fill="#0c215c" /><rect x="10.0" y="0.0" width="1.0" height="1.0" rx="2" fill="#091a49" /><rect x="10.0" y="1.0" width="1.0" height="1.0" rx="2" fill="#173faf" /><rect x="10.0" y="2.0" width="1.0" height="1.0" rx="2" fill="#0c215c" /><rect x="10.0" y="3.0" width="1.0" height="1.0" rx="2" fill="#0e286e" /><rect x="10.0" y="4.0" width="1.0" height="1.0" rx="2" fill="#0a1c4f" /><rect x="10.0" y="5.0" width="1.0" height="1.0" rx="2" fill="#0b1f56" /><rect x="10.0" y="6.0" width="1.0" height="1.0" rx="2" fill="#091a49" /><rect x="12.0" y="0.0" width="1.0" height="1.0" rx="2" fill="#091843" /><rect x="12.0" y="1.0" width="1.0" height="1.0" rx="2" fill="#0c215c" /><rect x="12.0" y="2.0" width="1.0" height="1.0" rx="2" fill="#0d2362" /><rect x="12.0" y="3.0" width="1.0" height="1.0" rx="2" fill="#091a49" /><rect x="12.0" y="4.0" width="1.0" height="1.0" rx="2" fill="#112e80" /><rect x="12.0" y="5.0" width="1.0" height="1.0" rx="2" fill="#1945bf" /><rect x="12.0" y="6.0" width="1.0" height="1.0" rx="2" fill="#091843" /><rect x="14.0" y="0.0" width="1.0" height="1.0" rx="2" fill="#0b1f56" /><rect x="14.0" y="1.0" width="1.0" height="1.0" rx="2" fill="#0d2362" /><rect x="14.0" y="2.0" width="1.0" height="1.0" rx="2" fill="#0a1c4f" /><rect x="14.0" y="3.0" width="1.0" height="1.0" rx="2" fill="#091a49" /><rect x="14.0" y="4.0" width="1.0" height="1.0" rx="2" fill="#102b77" /><rect x="14.0" y="5.0" width="1.0" height="1.0" rx="2" fill="#112e80" /><rect x="14.0" y="6.0" width="1.0" height="1.0" rx="2" fill="#091a49" /><rect x="16.0" y="0.0" width="1.0" height="1.0" rx="2" fill="#0a1c4f" /><rect x="16.0" y="1.0" width="1.0" height="1.0" rx="2" fill="#1a48c8" /><rect x="16.0" y="2.0" width="1.0" height="1.0" rx="2" fill="#102b77" /><rect x="16.0" y="3.0" width="1.0" height="1.0" rx="2" fill="#15389c" /><rect x="16.0" y="4.0" width="1.0" height="1.0" rx="2" fill="#0e286e" /><rect x="16.0" y="5.0" width="1.0" height="1.0" rx="2" fill="#091a49" /><rect x="16.0" y="6.0" width="1.0" height="1.0" rx="2" fill="#091843" /><rect x="18.0" y="0.0" width="1.0" height="1.0" rx="2" fill="#0c215c" /><rect x="18.0" y="1.0" width="1.0" height="1.0" rx="2" fill="#0d2362" /><rect x="18.0" y="2.0" width="1.0" height="1.0" rx="2" fill="#0c215c" /><rect x="18.0" y="3.0" width="1.0" height="1.0" rx="2" fill="#0d2362" /><rect x="18.0" y="4.0" width="1.0" height="1.0" rx="2" fill="#1943ba" /><rect x="18.0" y="5.0" width="1.0" height="1.0" rx="2" fill="#0e286e" /><rect x="18.0" y="6.0" width="1.0" height="1.0" rx="2" fill="#091843" /><rect x="20.0" y="0.0" width="1.0" height="1.0" rx="2" fill="#091843" /><rect x="20.0" y="1.0" width="1.0" height="1.0" rx="2" fill="#091843" /><rect x="20.0" y="2.0" width="1.0" height="1.0" rx="2" fill="#0c215c" /><rect x="20.0" y="3.0" width="1.0" height="1.0" rx="2" fill="#0d2362" /><rect x="20.0" y="4.0" width="1.0" height="1.0" rx="2" fill="#0b1f56" /><rect x="20.0" y="5.0" width="1.0" height="1.0" rx="2" fill="#091843" /><rect x="20.0" y="6.0" width="1.0" height="1.0" rx="2" fill="#0c215c" /><rect x="22.0" y="0.0" width="1.0" height="1.0" rx="2" fill="#0a1c4f" /><rect x="22.0" y="1.0" width="1.0" height="1.0" rx="2" fill="#091a49" /><rect x="22.0" y="2.0" width="1.0" height="1.0" rx="2" fill="#0d2362" /><rect x="22.0" y="3.0" width="1.0" height="1.0" rx="2" fill="#091843" /><rect x="22.0" y="4.0" width="1.0" height="1.0" rx="2" fill="#091843" /><rect x="22.0" y="5.0" width="1.0" height="1.0" rx="2" fill="#0e2568" /><rect x="22.0" y="6.0" width="1.0" height="1.0" rx="2" fill="#0b1f56" /><rect x="24.0" y="0.0" width="1.0" height="1.0" rx="2" fill="#0b1f56" /><rect x="24.0" y="1.0" width="1.0" height="1.0" rx="2" fill="#091843" /><rect x="24.0" y="2.0" width="1.0" height="1.0" rx="2" fill="#1c4bd2" /><rect x="24.0" y="3.0" width="1.0" height="1.0" rx="2" fill="#102b77" /><rect x="24.0" y="4.0" width="1.0" height="1.0" rx="2" fill="#0a1c4f" /><rect x="24.0" y="5.0" width="1.0" height="1.0" rx="2" fill="#0e286e" /><rect x="24.0" y="6.0" width="1.0" height="1.0" rx="2" fill="#091a49" /><rect x="26.0" y="0.0" width="1.0" height="1.0" rx="2" fill="#091843" /><rect x="26.0" y="1.0" width="1.0" height="1.0" rx="2" fill="#0e2568" /><rect x="26.0" y="2.0" width="1.0" height="1.0" rx="2" fill="#0a1c4f" /><rect x="26.0" y="3.0" width="1.0" height="1.0" rx="2" fill="#102b77" /><rect x="26.0" y="4.0" width="1.0" height="1.0" rx="2" fill="#0a1c4f" /><rect x="26.0" y="5.0" width="1.0" height="1.0" rx="2" fill="#456fe6" /><rect x="26.0" y="6.0" width="1.0" height="1.0" rx="2" fill="#091843" /><rect x="28.0" y="0.0" width="1.0" height="1.0" rx="2" fill="#091843" /><rect x="28.0" y="1.0" width="1.0" height="1.0" rx="2" fill="#0e2568" /><rect x="28.0" y="2.0" width="1.0" height="1.0" rx="2" fill="#112e80" /><rect x="28.0" y="3.0" width="1.0" height="1.0" rx="2" fill="#0b1f56" /><rect x="28.0" y="4.0" width="1.0" height="1.0" rx="2" fill="#112e80" /><rect x="28.0" y="5.0" width="1.0" height="1.0" rx="2" fill="#0e286e" /><rect x="28.0" y="6.0" width="1.0" height="1.0" rx="2" fill="#091843" /><rect x="30.0" y="0.0" width="1.0" height="1.0" rx="2" fill="#0b1f56" /><rect x="30.0" y="1.0" width="1.0" height="1.0" rx="2" fill="#091843" /><rect x="30.0" y="2.0" width="1.0" height="1.0" rx="2" fill="#0a1c4f" /><rect x="30.0" y="3.0" width="1.0" height="1.0" rx="2" fill="#0c215c" /><rect x="30.0" y="4.0" width="1.0" height="1.0" rx="2" fill="#102b77" /><rect x="30.0" y="5.0" width="1.0" height="1.0" rx="2" fill="#163ba5" /><rect x="30.0" y="6.0" width="1.0" height="1.0" rx="2" fill="#091843" /><rect x="32.0" y="0.0" width="1.0" height="1.0" rx="2" fill="#0b1f56" /><rect x="32.0" y="1.0" width="1.0" height="1.0" rx="2" fill="#112e80" /><rect x="32.0" y="2.0" width="1.0" height="1.0" rx="2" fill="#0a1c4f" /><rect x="32.0" y="3.0" width="1.0" height="1.0" rx="2" fill="#0e286e" /><rect x="32.0" y="4.0" width="1.0" height="1.0" rx="2" fill="#091a49" /><rect x="32.0" y="5.0" width="1.0" height="1.0" rx="2" fill="#0d2362" /><rect x="32.0" y="6.0" width="1.0" height="1.0" rx="2" fill="#091843" /><rect x="34.0" y="0.0" width="1.0" height="1.0" rx="2" fill="#091a49" /><rect x="34.0" y="1.0" width="1.0" height="1.0" rx="2" fill="#0c215c" /><rect x="34.0" y="2.0" width="1.0" height="1.0" rx="2" fill="#091a49" /><rect x="34.0" y="3.0" width="1.0" height="1.0" rx="2" fill="#0a1c4f" /><rect x="34.0" y="4.0" width="1.0" height="1.0" rx="2" fill="#3d69e5" /><rect x="34.0" y="5.0" width="1.0" height="1.0" rx="2" fill="#0b1f56" /><rect x="34.0" y="6.0" width="1.0" height="1.0" rx="2" fill="#0b1f56" /><rect x="36.0" y="0.0" width="1.0" height="1.0" rx="2" fill="#091843" /><rect x="36.0" y="1.0" width="1.0" height="1.0" rx="2" fill="#112e80" /><rect x="36.0" y="2.0" width="1.0" height="1.0" rx="2" fill="#091a49" /><rect x="36.0" y="3.0" width="1.0" height="1.0" rx="2" fill="#0a1c4f" /><rect x="36.0" y="4.0" width="1.0" height="1.0" rx="2" fill="#091843" /><rect x="36.0" y="5.0" width="1.0" height="1.0" rx="2" fill="#091843" /><rect x="36.0" y="6.0" width="1.0" height="1.0" rx="2" fill="#091a49" /><rect x="38.0" y="0.0" width="1.0" height="1.0" rx="2" fill="#0c215c" /><rect x="38.0" y="1.0" width="1.0" height="1.0" rx="2" fill="#112e80" /><rect x="38.0" y="2.0" width="1.0" height="1.0" rx="2" fill="#091843" /><rect x="38.0" y="3.0" width="1.0" height="1.0" rx="2" fill="#112e80" /><rect x="38.0" y="4.0" width="1.0" height="1.0" rx="2" fill="#091a49" /><rect x="38.0" y="5.0" width="1.0" height="1.0" rx="2" fill="#0b1f56" /><rect x="38.0" y="6.0" width="1.0" height="1.0" rx="2" fill="#091843" /><rect x="40.0" y="0.0" width="1.0" height="1.0" rx="2" fill="#0a1c4f" /><rect x="40.0" y="1.0" width="1.0" height="1.0" rx="2" fill="#5078e7" /><rect x="40.0" y="2.0" width="1.0" height="1.0" rx="2" fill="#163ba5" /><rect x="40.0" y="3.0" width="1.0" height="1.0" rx="2" fill="#0e286e" /><rect x="40.0" y="4.0" width="1.0" height="1.0" rx="2" fill="#0a1c4f" /><rect x="40.0" y="5.0" width="1.0" height="1.0" rx="2" fill="#091a49" /><rect x="40.0" y="6.0" width="1.0" height="1.0" rx="2" fill="#0c215c" /><rect x="42.0" y="0.0" width="1.0" height="1.0" rx="2" fill="#0a1c4f" /><rect x="42.0" y="1.0" width="1.0" height="1.0" rx="2" fill="#091843" /><rect x="42.0" y="2.0" width="1.0" height="1.0" rx="2" fill="#1945bf" /><rect x="42.0" y="3.0" width="1.0" height="1.0" rx="2" fill="#112e80" /><rect x="42.0" y="4.0" width="1.0" height="1.0" rx="2" fill="#123189" /><rect x="42.0" y="5.0" width="1.0" height="1.0" rx="2" fill="#112e80" /><rect x="42.0" y="6.0" width="1.0" height="1.0" rx="2" fill="#0b1f56" /><rect x="44.0" y="0.0" width="1.0" height="1.0" rx="2" fill="#0c215c" /><rect x="44.0" y="1.0" width="1.0" height="1.0" rx="2" fill="#0b1f56" /><rect x="44.0" y="2.0" width="1.0" height="1.0" rx="2" fill="#416ce5" /><rect x="44.0" y="3.0" width="1.0" height="1.0" rx="2" fill="#102b77" /><rect x="44.0" y="4.0" width="1.0" height="1.0" rx="2" fill="#0a1c4f" /><rect x="44.0" y="5.0" width="1.0" height="1.0" rx="2" fill="#0d2362" /><rect x="44.0" y="6.0" width="1.0" height="1.0" rx="2" fill="#0c215c" /><rect x="46.0" y="0.0" width="1.0" height="1.0" rx="2" fill="#0a1c4f" /><rect x="46.0" y="1.0" width="1.0" height="1.0" rx="2" fill="#091843" /><rect x="46.0" y="2.0" width="1.0" height="1.0" rx="2" fill="#1945bf" /><rect x="46.0" y="3.0" width="1.0" height="1.0" rx="2" fill="#0a1c4f" /><rect x="46.0" y="4.0" width="1.0" height="1.0" rx="2" fill="#112e80" /><rect x="46.0" y="5.0" width="1.0" height="1.0" rx="2" fill="#112e80" /><rect x="46.0" y="6.0" width="1.0" height="1.0" rx="2" fill="#091a49" /><rect x="48.0" y="0.0" width="1.0" height="1.0" rx="2" fill="#091a49" /><rect x="48.0" y="1.0" width="1.0" height="1.0" rx="2" fill="#102b77" /><rect x="48.0" y="2.0" width="1.0" height="1.0" rx="2" fill="#4972e6" /><rect x="48.0" y="3.0" width="1.0" height="1.0" rx="2" fill="#102b77" /><rect x="48.0" y="4.0" width="1.0" height="1.0" rx="2" fill="#1b4acd" /><rect x="48.0" y="5.0" width="1.0" height="1.0" rx="2" fill="#0b1f56" /><rect x="48.0" y="6.0" width="1.0" height="1.0" rx="2" fill="#0c215c" /><rect x="50.0" y="0.0" width="1.0" height="1.0" rx="2" fill="#0a1c4f" /><rect x="50.0" y="1.0" width="1.0" height="1.0" rx="2" fill="#112e80" /><rect x="50.0" y="2.0" width="1.0" height="1.0" rx="2" fill="#4972e6" /><rect x="50.0" y="3.0" width="1.0" height="1.0" rx="2" fill="#3563e3" /><rect x="50.0" y="4.0" width="1.0" height="1.0" rx="2" fill="#0d2362" /><rect x="50.0" y="5.0" width="1.0" height="1.0" rx="2" fill="#4972e6" /><rect x="50.0" y="6.0" width="1.0" height="1.0" rx="2" fill="#0a1c4f" /><rect x="52.0" y="0.0" width="1.0" height="1.0" rx="2" fill="#0a1c4f" /><rect x="52.0" y="1.0" width="1.0" height="1.0" rx="2" fill="#112e80" /><rect x="52.0" y="2.0" width="1.0" height="1.0" rx="2" fill="#0a1c4f" /><rect x="52.0" y="3.0" width="1.0" height="1.0" rx="2" fill="#0e2568" /><rect x="52.0" y="4.0" width="1.0" height="1.0" rx="2" fill="#091843" /><rect x="52.0" y="5.0" width="1.0" height="1.0" rx="2" fill="#102b77" /><rect x="52.0" y="6.0" width="1.0" height="1.0" rx="2" fill="#0a1c4f" /><rect x="54.0" y="0.0" width="1.0" height="1.0" rx="2" fill="#0a1c4f" /><rect x="54.0" y="1.0" width="1.0" height="1.0" rx="2" fill="#0c215c" /><rect x="54.0" y="2.0" width="1.0" height="1.0" rx="2" fill="#1943ba" /><rect x="54.0" y="3.0" width="1.0" height="1.0" rx="2" fill="#0a1c4f" /><rect x="54.0" y="4.0" width="1.0" height="1.0" rx="2" fill="#0a1c4f" /><rect x="54.0" y="5.0" width="1.0" height="1.0" rx="2" fill="#091a49" /><rect x="54.0" y="6.0" width="1.0" height="1.0" rx="2" fill="#091843" /><rect x="56.0" y="0.0" width="1.0" height="1.0" rx="2" fill="#091a49" /><rect x="56.0" y="1.0" width="1.0" height="1.0" rx="2" fill="#091843" /><rect x="56.0" y="2.0" width="1.0" height="1.0" rx="2" fill="#0e286e" /><rect x="56.0" y="3.0" width="1.0" height="1.0" rx="2" fill="#0e286e" /><rect x="56.0" y="4.0" width="1.0" height="1.0" rx="2" fill="#091a49" /><rect x="56.0" y="5.0" width="1.0" height="1.0" rx="2" fill="#0a1c4f" /><rect x="56.0" y="6.0" width="1.0" height="1.0" rx="2" fill="#0c215c" /><rect x="58.0" y="0.0" width="1.0" height="1.0" rx="2" fill="#0b1f56" /><rect x="58.0" y="1.0" width="1.0" height="1.0" rx="2" fill="#0c215c" /><rect x="58.0" y="2.0" width="1.0" height="1.0" rx="2" fill="#0e2568" /><rect x="58.0" y="3.0" width="1.0" height="1.0" rx="2" fill="#0e286e" /><rect x="58.0" y="4.0" width="1.0" height="1.0" rx="2" fill="#0e2568" /><rect x="58.0" y="5.0" width="1.0" height="1.0" rx="2" fill="#0c215c" /><rect x="58.0" y="6.0" width="1.0" height="1.0" rx="2" fill="#0c215c" /><rect x="60.0" y="0.0" width="1.0" height="1.0" rx="2" fill="#0a1c4f" /><rect x="60.0" y="1.0" width="1.0" height="1.0" rx="2" fill="#0b1f56" /><rect x="60.0" y="2.0" width="1.0" height="1.0" rx="2" fill="#0b1f56" /><rect x="60.0" y="3.0" width="1.0" height="1.0" rx="2" fill="#133593" /><rect x="60.0" y="4.0" width="1.0" height="1.0" rx="2" fill="#102b77" /><rect x="60.0" y="5.0" width="1.0" height="1.0" rx="2" fill="#3966e4" /><rect x="60.0" y="6.0" width="1.0" height="1.0" rx="2" fill="#0c215c" /><rect x="62.0" y="0.0" width="1.0" height="1.0" rx="2" fill="#0c215c" /><rect x="62.0" y="1.0" width="1.0" height="1.0" rx="2" fill="#5078e7" /><rect x="62.0" y="2.0" width="1.0" height="1.0" rx="2" fill="#0b1f56" /><rect x="62.0" y="3.0" width="1.0" height="1.0" rx="2" fill="#0a1c4f" /><rect x="62.0" y="4.0" width="1.0" height="1.0" rx="2" fill="#123189" /><rect x="62.0" y="5.0" width="1.0" height="1.0" rx="2" fill="#091843" /><rect x="62.0" y="6.0" width="1.0" height="1.0" rx="2" fill="#0c215c" /><rect x="64.0" y="0.0" width="1.0" height="1.0" rx="2" fill="#0a1c4f" /><rect x="64.0" y="1.0" width="1.0" height="1.0" rx="2" fill="#0a1c4f" /><rect x="64.0" y="2.0" width="1.0" height="1.0" rx="2" fill="#112e80" /><rect x="64.0" y="3.0" width="1.0" height="1.0" rx="2" fill="#112e80" /><rect x="64.0" y="4.0" width="1.0" height="1.0" rx="2" fill="#102b77" /><rect x="64.0" y="5.0" width="1.0" height="1.0" rx="2" fill="#0b1f56" /><rect x="64.0" y="6.0" width="1.0" height="1.0" rx="2" fill="#0c215c" /><rect x="66.0" y="0.0" width="1.0" height="1.0" rx="2" fill="#091a49" /><rect x="66.0" y="1.0" width="1.0" height="1.0" rx="2" fill="#0e286e" /><rect x="66.0" y="2.0" width="1.0" height="1.0" rx="2" fill="#0a1c4f" /><rect x="66.0" y="3.0" width="1.0" height="1.0" rx="2" fill="#112e80" /><rect x="66.0" y="4.0" width="1.0" height="1.0" rx="2" fill="#0b1f56" /><rect x="66.0" y="5.0" width="1.0" height="1.0" rx="2" fill="#102b77" /><rect x="66.0" y="6.0" width="1.0" height="1.0" rx="2" fill="#0a1c4f" /><rect x="68.0" y="0.0" width="1.0" height="1.0" rx="2" fill="#0b1f56" /><rect x="68.0" y="1.0" width="1.0" height="1.0" rx="2" fill="#112e80" /><rect x="68.0" y="2.0" width="1.0" height="1.0" rx="2" fill="#0e286e" /><rect x="68.0" y="3.0" width="1.0" height="1.0" rx="2" fill="#0b1f56" /><rect x="68.0" y="4.0" width="1.0" height="1.0" rx="2" fill="#0e2568" /><rect x="68.0" y="5.0" width="1.0" height="1.0" rx="2" fill="#0d2362" /><rect x="68.0" y="6.0" width="1.0" height="1.0" rx="2" fill="#091843" /><rect x="70.0" y="0.0" width="1.0" height="1.0" rx="2" fill="#091843" /><rect x="70.0" y="1.0" width="1.0" height="1.0" rx="2" fill="#0a1c4f" /><rect x="70.0" y="2.0" width="1.0" height="1.0" rx="2" fill="#0c215c" /><rect x="70.0" y="3.0" width="1.0" height="1.0" rx="2" fill="#112e80" /><rect x="70.0" y="4.0" width="1.0" height="1.0" rx="2" fill="#102b77" /><rect x="70.0" y="5.0" width="1.0" height="1.0" rx="2" fill="#0d2362" /><rect x="70.0" y="6.0" width="1.0" height="1.0" rx="2" fill="#091a49" /><rect x="72.0" y="0.0" width="1.0" height="1.0" rx="2" fill="#0a1c4f" /><rect x="72.0" y="1.0" width="1.0" height="1.0" rx="2" fill="#091a49" /><rect x="72.0" y="2.0" width="1.0" height="1.0" rx="2" fill="#0e286e" /><rect x="72.0" y="3.0" width="1.0" height="1.0" rx="2" fill="#102b77" /><rect x="72.0" y="4.0" width="1.0" height="1.0" rx="2" fill="#091a49" /><rect x="72.0" y="5.0" width="1.0" height="1.0" rx="2" fill="#091843" /><rect x="72.0" y="6.0" width="1.0" height="1.0" rx="2" fill="#091a49" /><rect x="74.0" y="0.0" width="1.0" height="1.0" rx="2" fill="#091a49" /><rect x="74.0" y="1.0" width="1.0" height="1.0" rx="2" fill="#0d2362" /><rect x="74.0" y="2.0" width="1.0" height="1.0" rx="2" fill="#0c215c" /><rect x="74.0" y="3.0" width="1.0" height="1.0" rx="2" fill="#3563e3" /><rect x="74.0" y="4.0" width="1.0" height="1.0" rx="2" fill="#0c215c" /><rect x="74.0" y="5.0" width="1.0" height="1.0" rx="2" fill="#0a1c4f" /><rect x="74.0" y="6.0" width="1.0" height="1.0" rx="2" fill="#091843" /><rect x="76.0" y="0.0" width="1.0" height="1.0" rx="2" fill="#0b1f56" /><rect x="76.0" y="1.0" width="1.0" height="1.0" rx="2" fill="#0e2568" /><rect x="76.0" y="2.0" width="1.0" height="1.0" rx="2" fill="#091a49" /><rect x="76.0" y="3.0" width="1.0" height="1.0" rx="2" fill="#3563e3" /><rect x="76.0" y="4.0" width="1.0" height="1.0" rx="2" fill="#0e286e" /><rect x="76.0" y="5.0" width="1.0" height="1.0" rx="2" fill="#091a49" /><rect x="76.0" y="6.0" width="1.0" height="1.0" rx="2" fill="#0a1c4f" /><rect x="78.0" y="0.0" width="1.0" height="1.0" rx="2" fill="#0b1f56" /><rect x="78.0" y="1.0" width="1.0" height="1.0" rx="2" fill="#0c215c" /><rect x="78.0" y="2.0" width="1.0" height="1.0" rx="2" fill="#0e286e" /><rect x="78.0" y="3.0" width="1.0" height="1.0" rx="2" fill="#0c215c" /><rect x="78.0" y="4.0" width="1.0" height="1.0" rx="2" fill="#0e2568" /><rect x="78.0" y="5.0" width="1.0" height="1.0" rx="2" fill="#416ce5" /><rect x="78.0" y="6.0" width="1.0" height="1.0" rx="2" fill="#091843" /><rect x="80.0" y="0.0" width="1.0" height="1.0" rx="2" fill="#091843" /><rect x="80.0" y="1.0" width="1.0" height="1.0" rx="2" fill="#0b1f56" /><rect x="80.0" y="2.0" width="1.0" height="1.0" rx="2" fill="#0e286e" /><rect x="80.0" y="3.0" width="1.0" height="1.0" rx="2" fill="#456fe6" /><rect x="80.0" y="4.0" width="1.0" height="1.0" rx="2" fill="#163ba5" /><rect x="80.0" y="5.0" width="1.0" height="1.0" rx="2" fill="#5078e7" /><rect x="80.0" y="6.0" width="1.0" height="1.0" rx="2" fill="#0a1c4f" /><rect x="82.0" y="0.0" width="1.0" height="1.0" rx="2" fill="#091843" /><rect x="82.0" y="1.0" width="1.0" height="1.0" rx="2" fill="#0e2568" /><rect x="82.0" y="2.0" width="1.0" height="1.0" rx="2" fill="#0b1f56" /><rect x="82.0" y="3.0" width="1.0" height="1.0" rx="2" fill="#133593" /><rect x="82.0" y="4.0" width="1.0" height="1.0" rx="2" fill="#0e2568" /><rect x="82.0" y="5.0" width="1.0" height="1.0" rx="2" fill="#0a1c4f" /><rect x="82.0" y="6.0" width="1.0" height="1.0" rx="2" fill="#091843" /><rect x="84.0" y="0.0" width="1.0" height="1.0" rx="2" fill="#091843" /><rect x="84.0" y="1.0" width="1.0" height="1.0" rx="2" fill="#0e286e" /><rect x="84.0" y="2.0" width="1.0" height="1.0" rx="2" fill="#102b77" /><rect x="84.0" y="3.0" width="1.0" height="1.0" rx="2" fill="#1841b6" /><rect x="84.0" y="4.0" width="1.0" height="1.0" rx="2" fill="#0c215c" /><rect x="84.0" y="5.0" width="1.0" height="1.0" rx="2" fill="#0a1c4f" /><rect x="84.0" y="6.0" width="1.0" height="1.0" rx="2" fill="#091a49" /><rect x="86.0" y="0.0" width="1.0" height="1.0" rx="2" fill="#0a1c4f" /><rect x="86.0" y="1.0" width="1.0" height="1.0" rx="2" fill="#0c215c" /><rect x="86.0" y="2.0" width="1.0" height="1.0" rx="2" fill="#0e2568" /><rect x="86.0" y="3.0" width="1.0" height="1.0" rx="2" fill="#1a46c4" /><rect x="86.0" y="4.0" width="1.0" height="1.0" rx="2" fill="#102b77" /><rect x="86.0" y="5.0" width="1.0" height="1.0" rx="2" fill="#0b1f56" /><rect x="86.0" y="6.0" width="1.0" height="1.0" rx="2" fill="#0c215c" /><rect x="88.0" y="0.0" width="1.0" height="1.0" rx="2" fill="#0b1f56" /><rect x="88.0" y="1.0" width="1.0" height="1.0" rx="2" fill="#0e2568" /><rect x="88.0" y="2.0" width="1.0" height="1.0" rx="2" fill="#416ce5" /><rect x="88.0" y="3.0" width="1.0" height="1.0" rx="2" fill="#123189" /><rect x="88.0" y="4.0" width="1.0" height="1.0" rx="2" fill="#0e2568" /><rect x="88.0" y="5.0" width="1.0" height="1.0" rx="2" fill="#5078e7" /><rect x="88.0" y="6.0" width="1.0" height="1.0" rx="2" fill="#091a49" /><rect x="90.0" y="0.0" width="1.0" height="1.0" rx="2" fill="#091843" /><rect x="90.0" y="1.0" width="1.0" height="1.0" rx="2" fill="#091a49" /><rect x="90.0" y="2.0" width="1.0" height="1.0" rx="2" fill="#091a49" /><rect x="90.0" y="3.0" width="1.0" height="1.0" rx="2" fill="#091843" /><rect x="90.0" y="4.0" width="1.0" height="1.0" rx="2" fill="#1c4bd2" /><rect x="90.0" y="5.0" width="1.0" height="1.0" rx="2" fill="#1945bf" /><rect x="90.0" y="6.0" width="1.0" height="1.0" rx="2" fill="#091a49" /><rect x="92.0" y="0.0" width="1.0" height="1.0" rx="2" fill="#0c215c" /><rect x="92.0" y="1.0" width="1.0" height="1.0" rx="2" fill="#0c215c" /><rect x="92.0" y="2.0" width="1.0" height="1.0" rx="2" fill="#0b1f56" /><rect x="92.0" y="3.0" width="1.0" height="1.0" rx="2" fill="#0a1c4f" /><rect x="92.0" y="4.0" width="1.0" height="1.0" rx="2" fill="#102b77" /><rect x="92.0" y="5.0" width="1.0" height="1.0" rx="2" fill="#0e2568" /><rect x="92.0" y="6.0" width="1.0" height="1.0" rx="2" fill="#0c215c" /><rect x="94.0" y="0.0" width="1.0" height="1.0" rx="2" fill="#0b1f56" /><rect x="94.0" y="1.0" width="1.0" height="1.0" rx="2" fill="#4c75e7" /><rect x="94.0" y="2.0" width="1.0" height="1.0" rx="2" fill="#091a49" /><rect x="94.0" y="3.0" width="1.0" height="1.0" rx="2" fill="#0e2568" /><rect x="94.0" y="4.0" width="1.0" height="1.0" rx="2" fill="#0c215c" /><rect x="94.0" y="5.0" width="1.0" height="1.0" rx="2" fill="#091a49" /><rect x="94.0" y="6.0" width="1.0" height="1.0" rx="2" fill="#091a49" /><rect x="96.0" y="0.0" width="1.0" height="1.0" rx="2" fill="#0b1f56" /><rect x="96.0" y="1.0" width="1.0" height="1.0" rx="2" fill="#0e2568" /><rect x="96.0" y="2.0" width="1.0" height="1.0" rx="2" fill="#1a46c4" /><rect x="96.0" y="3.0" width="1.0" height="1.0" rx="2" fill="#1841b6" /><rect x="96.0" y="4.0" width="1.0" height="1.0" rx="2" fill="#0e2568" /><rect x="96.0" y="5.0" width="1.0" height="1.0" rx="2" fill="#1841b6" /><rect x="96.0" y="6.0" width="1.0" height="1.0" rx="2" fill="#0a1c4f" /><rect x="98.0" y="0.0" width="1.0" height="1.0" rx="2" fill="#091843" /><rect x="98.0" y="1.0" width="1.0" height="1.0" rx="2" fill="#0d2362" /><rect x="98.0" y="2.0" width="1.0" height="1.0" rx="2" fill="#091a49" /><rect x="98.0" y="3.0" width="1.0" height="1.0" rx="2" fill="#0e2568" /><rect x="98.0" y="4.0" width="1.0" height="1.0" rx="2" fill="#112e80" /><rect x="98.0" y="5.0" width="1.0" height="1.0" rx="2" fill="#112e80" /><rect x="98.0" y="6.0" width="1.0" height="1.0" rx="2" fill="#0b1f56" /><rect x="100.0" y="0.0" width="1.0" height="1.0" rx="2" fill="#0c215c" /><rect x="100.0" y="1.0" width="1.0" height="1.0" rx="2" fill="#0a1c4f" /><rect x="100.0" y="2.0" width="1.0" height="1.0" rx="2" fill="#0e2568" /><rect x="100.0" y="3.0" width="1.0" height="1.0" rx="2" fill="#102b77" /><rect x="100.0" y="4.0" width="1.0" height="1.0" rx="2" fill="#102b77" /><rect x="100.0" y="5.0" width="1.0" height="1.0" rx="2" fill="#0e286e" /><rect x="100.0" y="6.0" width="1.0" height="1.0" rx="2" fill="#0c215c" /><rect x="102.0" y="0.0" width="1.0" height="1.0" rx="2" fill="#0a1c4f" /><rect x="102.0" y="1.0" width="1.0" height="1.0" rx="2" fill="#0e286e" /><rect x="102.0" y="2.0" width="1.0" height="1.0" rx="2" fill="#091a49" /><rect x="102.0" y="3.0" width="1.0" height="1.0" rx="2" fill="#091843" /><rect x="102.0" y="4.0" width="1.0" height="1.0" rx="2" fill="#0d2362" /><rect x="102.0" y="5.0" width="1.0" height="1.0" rx="2" fill="#0d2362" /><rect x="102.0" y="6.0" width="1.0" height="1.0" rx="2" fill="#091843" /><rect x="104.0" y="0.0" width="1.0" height="1.0" rx="2" fill="#0c215c" /><rect x="104.0" y="1.0" width="1.0" height="1.0" rx="2" fill="#0c215c" /><rect x="104.0" y="2.0" width="1.0" height="1.0" rx="2" fill="#0d2362" /><rect x="104.0" y="3.0" width="1.0" height="1.0" rx="2" fill="#091a49" /><rect x="104.0" y="4.0" width="1.0" height="1.0" rx="2" fill="#0e2568" /><text x="-5" y="4.5" text-anchor="end" class="mono smaller" fill="#E5E7EB">Mon</text><text x="-5" y="6.5" text-anchor="end" class="mono smaller" fill="#E5E7EB">Wed</text><text x="-5" y="8.5" text-anchor="end" class="mono smaller" fill="#E5E7EB">Fri</text></g></g></g></g></g></g></svg>